<svg width="417" height="118" viewBox="0 0 417 118" fill="none" xmlns="http://www.w3.org/2000/svg">
<path opacity="0.35" d="M358.858 0H58.1961C50.3537 0 42.7817 1.57189 35.5883 4.60726C28.6654 7.53422 22.4455 11.7621 17.0911 17.1282C11.7366 22.4943 7.57198 28.6734 4.59728 35.6114C1.56848 42.8204 0 50.4088 0 58.2683V59.7317C0 67.5912 1.56848 75.1796 4.59728 82.3886C7.5179 89.3266 11.7366 95.5599 17.0911 100.872C22.4455 106.238 28.6654 110.412 35.5883 113.393C42.7817 116.428 50.3537 118 58.1961 118H358.858C366.7 118 374.272 116.428 381.466 113.393C388.389 110.466 394.609 106.238 399.909 100.872C405.263 95.5057 409.428 89.2724 412.403 82.3886C415.432 75.1796 417 67.5912 417 59.7317V58.2683C417 50.4088 415.432 42.8204 412.403 35.6114C409.482 28.6734 405.263 22.4401 399.909 17.1282C394.554 11.7621 388.335 7.58842 381.466 4.60726C374.326 1.57189 366.7 0 358.858 0Z" fill="url(#paint0_linear)"/>
<mask id="mask0" mask-type="alpha" maskUnits="userSpaceOnUse" x="4" y="4" width="409" height="110">
<path d="M58.1955 113.23C43.971 113.23 30.6118 107.647 20.4978 97.5113C10.3838 87.3754 4.81299 73.9872 4.81299 59.7318V58.2683C4.81299 44.0671 10.3838 30.6248 20.4978 20.4888C30.6118 10.4071 43.971 4.82414 58.1955 4.82414H358.857C373.028 4.82414 386.441 10.4071 396.555 20.543C406.669 30.679 412.24 44.0671 412.24 58.3225V59.786C412.24 73.9872 406.669 87.4296 396.555 97.5655C386.441 107.701 373.082 113.284 358.857 113.284H58.1955V113.23Z" fill="black"/>
<path d="M58.1943 112.903C44.078 112.903 30.7729 107.375 20.7671 97.2928C10.7072 87.211 5.19043 73.9313 5.19043 59.7843V58.3208C5.19043 44.1738 10.7072 30.8399 20.7671 20.8123C30.827 10.7306 44.078 5.20186 58.1943 5.20186H358.856C372.973 5.20186 386.278 10.7306 396.283 20.8123C406.343 30.8941 411.86 44.1738 411.86 58.3208V59.7843C411.86 73.9313 406.343 87.2653 396.283 97.2928C386.223 107.375 372.973 112.903 358.856 112.903H58.1943Z" fill="#0A0A0A"/>
<path d="M58.1956 112.58C44.1874 112.58 30.9365 107.051 20.9847 97.0777C11.033 87.1044 5.51624 73.8246 5.51624 59.7861V58.3226C5.51624 44.284 11.033 31.0042 20.9847 21.0309C30.9365 11.0575 44.1874 5.52882 58.1956 5.52882H358.857C372.866 5.52882 386.063 11.0575 396.068 21.0309C406.02 31.0042 411.537 44.284 411.537 58.3226V59.7861C411.537 73.8246 406.02 87.1044 396.068 97.0777C386.117 107.051 372.866 112.58 358.857 112.58H58.1956Z" fill="#141414"/>
<path d="M58.1951 112.2C44.241 112.2 31.1523 106.726 21.2005 96.8067C11.3029 86.8875 5.84021 73.7162 5.84021 59.7318V58.2683C5.84021 44.2839 11.3029 31.1668 21.2005 21.1934C31.0982 11.2743 44.241 5.79977 58.1951 5.79977H358.857C372.811 5.79977 385.9 11.2743 395.852 21.1934C405.749 31.1126 411.212 44.2839 411.212 58.2683V59.7318C411.212 73.7162 405.749 86.8333 395.852 96.8067C385.954 106.726 372.811 112.2 358.857 112.2H58.1951Z" fill="#1D1D1D"/>
<path d="M58.1955 111.875C44.3496 111.875 31.315 106.455 21.4714 96.59C11.6278 86.725 6.21924 73.6621 6.21924 59.7861V58.3226C6.21924 44.4466 11.6278 31.3837 21.4714 21.5187C31.315 11.6538 44.3496 6.23349 58.1955 6.23349H358.857C372.703 6.23349 385.738 11.6538 395.582 21.5187C405.425 31.3837 410.834 44.4466 410.834 58.3226V59.7861C410.834 73.6621 405.425 86.725 395.582 96.59C385.738 106.455 372.703 111.875 358.857 111.875H58.1955Z" fill="#272727"/>
<path d="M58.1958 111.55C44.4581 111.55 31.4775 106.13 21.688 96.3188C11.8986 86.5081 6.48999 73.4994 6.48999 59.7318V58.2683C6.48999 44.5007 11.8986 31.492 21.688 21.6813C31.4775 11.8705 44.404 6.50443 58.1958 6.50443H358.858C372.595 6.50443 385.576 11.9247 395.365 21.7355C405.155 31.5462 410.564 44.555 410.564 58.3225V59.786C410.564 73.5536 405.155 86.5623 395.365 96.3731C385.576 106.184 372.595 111.604 358.858 111.604H58.1958V111.55Z" fill="#313131"/>
<path d="M58.1955 111.225C44.5119 111.225 31.6395 105.859 21.9041 96.102C12.1687 86.3454 6.81421 73.4451 6.81421 59.7317V58.2683C6.81421 44.5549 12.1687 31.6546 21.9041 21.898C31.6395 12.1415 44.5119 6.77538 58.1955 6.77538H358.857C372.541 6.77538 385.413 12.1415 395.149 21.898C404.884 31.6546 410.239 44.5549 410.239 58.2683V59.7317C410.239 73.4451 404.884 86.3454 395.149 96.102C385.413 105.859 372.541 111.225 358.857 111.225H58.1955Z" fill="#3B3B3B"/>
<path d="M58.1952 110.899C44.6197 110.899 31.8015 105.588 22.1742 95.8852C12.4929 86.1829 7.1925 73.391 7.1925 59.786V58.3226C7.1925 44.7176 12.4929 31.8715 22.1742 22.2233C31.8555 12.521 44.6197 7.20909 58.1952 7.20909H358.857C372.433 7.20909 385.251 12.521 394.878 22.2233C404.559 31.9257 409.86 44.7176 409.86 58.3226V59.786C409.86 73.391 404.559 86.2371 394.878 95.8852C385.197 105.588 372.433 110.899 358.857 110.899H58.1952Z" fill="#454545"/>
<path d="M58.1955 110.574C44.7282 110.574 32.0181 105.262 22.3909 95.6684C12.8177 86.0745 7.51733 73.2826 7.51733 59.786V58.3226C7.51733 44.826 12.8177 32.0883 22.3909 22.4402C31.964 12.8462 44.6741 7.53432 58.1955 7.53432H358.857C372.325 7.53432 385.035 12.8462 394.662 22.4402C404.235 32.0341 409.536 44.7718 409.536 58.3226V59.786C409.536 73.2826 404.235 86.0203 394.662 95.6684C385.089 105.262 372.379 110.574 358.857 110.574H58.1955Z" fill="#4E4E4E"/>
<path d="M58.1959 110.195C44.7826 110.195 32.1807 104.937 22.6075 95.3974C13.0885 85.8576 7.84216 73.1741 7.84216 59.7318V58.2683C7.84216 44.8259 13.0885 32.1966 22.6075 22.6027C32.1266 13.0087 44.7826 7.80525 58.1959 7.80525H358.858C372.271 7.80525 384.873 13.0629 394.392 22.6027C403.911 32.1424 409.157 44.8259 409.157 58.2683V59.7318C409.157 73.1741 403.911 85.8034 394.392 95.3974C384.873 104.937 372.217 110.195 358.858 110.195H58.1959Z" fill="#585858"/>
<path d="M58.1956 109.87C44.8905 109.87 32.3426 104.666 22.8777 95.1264C13.3586 85.695 8.16638 73.1199 8.16638 59.786V58.3225C8.16638 44.9886 13.3586 32.4135 22.8777 22.9279C32.3426 13.4424 44.8905 8.18471 58.1956 8.18471H358.857C372.162 8.18471 384.71 13.3882 394.175 22.9279C403.64 32.4135 408.887 44.9886 408.887 58.3225V59.786C408.887 73.1199 403.694 85.695 394.175 95.1806C384.71 104.666 372.162 109.924 358.857 109.924H58.1956V109.87Z" fill="#626262"/>
<path d="M58.1959 109.544C44.9449 109.544 32.5052 104.341 23.0943 94.9097C13.6834 85.4783 8.49121 73.0116 8.49121 59.7319V58.2684C8.49121 45.0429 13.6834 32.522 23.0943 23.0906C32.5052 13.6593 44.9449 8.45583 58.1959 8.45583H358.858C372.055 8.45583 384.548 13.6593 393.959 23.0906C403.37 32.522 408.562 44.9887 408.562 58.2684V59.7319C408.562 72.9574 403.37 85.4783 393.959 94.9097C384.548 104.341 372.109 109.544 358.858 109.544H58.1959Z" fill="#6C6C6C"/>
<path d="M58.1955 109.219C45.0527 109.219 32.6671 104.07 23.3102 94.6927C13.9534 85.3156 8.81531 72.9031 8.81531 59.786V58.3225C8.81531 45.1511 13.9534 32.7387 23.3102 23.3615C32.6671 13.9844 45.0527 8.83511 58.1955 8.83511H358.857C372 8.83511 384.386 13.9844 393.688 23.3615C403.045 32.7387 408.183 45.1511 408.183 58.3225V59.786C408.183 72.9573 403.045 85.3698 393.688 94.6927C384.332 104.07 371.946 109.219 358.857 109.219H58.1955Z" fill="#767676"/>
<path d="M58.1959 108.894C45.1613 108.894 32.8838 103.745 23.5811 94.476C14.2784 85.153 9.19434 72.8489 9.19434 59.786V58.3225C9.19434 45.2596 14.3325 32.9555 23.5811 23.6326C32.8838 14.3097 45.1613 9.21457 58.1959 9.21457H358.858C371.892 9.21457 384.17 14.3639 393.473 23.6326C402.775 32.9555 407.859 45.2596 407.859 58.3225V59.786C407.859 72.8489 402.721 85.153 393.473 94.476C384.17 103.799 371.892 108.894 358.858 108.894H58.1959Z" fill="#7F7F7F"/>
<path d="M58.1955 108.569C45.2149 108.569 33.0457 103.474 23.797 94.2591C14.6025 84.9904 9.51843 72.7947 9.51843 59.786V58.3225C9.51843 45.3138 14.6025 33.1181 23.797 23.8494C33.0457 14.6349 45.2149 9.53979 58.1955 9.53979H358.857C371.784 9.53979 384.007 14.6349 393.256 23.8494C402.45 33.1181 407.534 45.3138 407.534 58.3225V59.786C407.534 72.7405 402.45 84.9904 393.256 94.2591C384.007 103.474 371.838 108.569 358.857 108.569H58.1955Z" fill="#898989"/>
<path d="M58.1952 108.189C45.3228 108.189 33.2076 103.149 24.0672 93.934C14.9267 84.7737 9.89673 72.578 9.89673 59.7319V58.2684C9.89673 45.3681 14.9267 33.2266 24.0672 24.0663C33.2076 14.906 45.3769 9.81091 58.1952 9.81091H358.857C371.729 9.81091 383.845 14.8518 392.985 24.0663C402.125 33.2266 407.21 45.4223 407.21 58.2684V59.7319C407.21 72.6322 402.18 84.7737 392.985 93.934C383.845 103.094 371.675 108.189 358.857 108.189H58.1952Z" fill="#939393"/>
<path d="M58.1955 107.864C45.4313 107.864 33.3702 102.823 24.2838 93.7172C15.1974 84.6111 10.1675 72.5238 10.1675 59.7319V58.2684C10.1675 45.4765 15.1974 33.3892 24.2838 24.2831C33.3702 15.177 45.4313 10.1361 58.1955 10.1361H358.857C371.622 10.1361 383.683 15.177 392.769 24.2831C401.855 33.3892 406.885 45.4765 406.885 58.2684V59.7319C406.885 72.5238 401.855 84.6111 392.769 93.7172C383.683 102.823 371.622 107.864 358.857 107.864H58.1955Z" fill="#9D9D9D"/>
<path d="M58.1958 107.539C45.4857 107.539 33.5328 102.552 24.5005 93.5004C15.4682 84.4485 10.4923 72.4696 10.4923 59.7319V58.2684C10.4923 45.5307 15.4682 33.5518 24.5005 24.4999C33.5328 15.448 45.4857 10.4613 58.1958 10.4613H358.858C371.568 10.4613 383.521 15.448 392.553 24.4999C401.585 33.5518 406.561 45.5307 406.561 58.2684V59.7319C406.561 72.4696 401.585 84.4485 392.553 93.5004C383.521 102.552 371.568 107.539 358.858 107.539H58.1958Z" fill="#A7A7A7"/>
<path d="M58.1956 107.214C45.5937 107.214 33.6949 102.281 24.7707 93.2835C15.7925 84.2858 10.8707 72.4153 10.8707 59.786V58.3225C10.8707 45.6932 15.7925 33.7685 24.7707 24.825C33.7489 15.8273 45.5937 10.8949 58.1956 10.8949H358.858C371.459 10.8949 383.304 15.8273 392.282 24.825C401.261 33.8227 406.182 45.6932 406.182 58.3225V59.786C406.182 72.4153 401.261 84.2858 392.282 93.2835C383.304 102.281 371.459 107.214 358.858 107.214H58.1956Z" fill="#B1B1B1"/>
<path d="M58.1959 106.888C45.7022 106.888 33.9115 101.956 24.9874 93.0666C16.0633 84.1231 11.1956 72.3069 11.1956 59.786V58.3225C11.1956 45.8016 16.1173 33.9853 24.9874 25.0418C33.8574 16.0983 45.7022 11.2201 58.1959 11.2201H358.858C371.352 11.2201 383.142 16.1525 392.066 25.0418C400.99 33.9311 405.858 45.8016 405.858 58.3225V59.786C405.858 72.3069 400.936 84.1231 392.066 93.0666C383.142 102.01 371.352 106.888 358.858 106.888H58.1959Z" fill="#BABABA"/>
<path d="M58.1954 106.563C45.7557 106.563 34.0732 101.685 25.2032 92.7957C16.3332 83.9064 11.4655 72.1985 11.4655 59.7318V58.2683C11.4655 45.8016 16.3332 34.0938 25.2032 25.2045C34.0191 16.3152 45.7557 11.4369 58.1954 11.4369H358.857C371.297 11.4369 382.979 16.3152 391.849 25.2045C400.72 34.0396 405.587 45.8016 405.587 58.2683V59.7318C405.587 72.1985 400.72 83.9064 391.849 92.7957C383.034 101.631 371.297 106.563 358.857 106.563H58.1954Z" fill="#C4C4C4"/>
<path d="M58.1957 106.238C45.8642 106.238 34.2358 101.414 25.4739 92.5788C16.7121 83.7979 11.8444 72.1443 11.8444 59.786V58.3225C11.8444 45.9642 16.658 34.3105 25.4739 25.5297C34.2358 16.7488 45.8642 11.8705 58.1957 11.8705H358.858C371.189 11.8705 382.818 16.6946 391.579 25.5297C400.341 34.3105 405.209 45.9642 405.209 58.3225V59.786C405.209 72.1443 400.395 83.7979 391.579 92.5788C382.818 101.36 371.189 106.238 358.858 106.238H58.1957Z" fill="#CECECE"/>
<path d="M58.1955 105.859C45.9722 105.859 34.3979 101.035 25.6901 92.3079C16.9823 83.5812 12.1687 71.9818 12.1687 59.7319V58.2684C12.1687 46.0185 16.9823 34.419 25.6901 25.6924C34.3979 16.9657 45.9722 12.1416 58.1955 12.1416H358.857C371.081 12.1416 382.655 16.9657 391.363 25.6924C400.071 34.419 404.884 46.0185 404.884 58.2684V59.7319C404.884 71.9818 400.071 83.5812 391.363 92.3079C382.655 101.035 371.081 105.859 358.857 105.859H58.1955Z" fill="#D8D8D8"/>
<path d="M58.1959 105.533C46.0266 105.533 34.5605 100.764 25.9068 92.0911C17.2531 83.4186 12.4935 71.9275 12.4935 59.7318V58.2684C12.4935 46.0727 17.2531 34.5816 25.9068 25.9091C34.5605 17.2367 46.0266 12.4668 58.1959 12.4668H358.858C371.027 12.4668 382.493 17.2367 391.147 25.9091C399.801 34.5816 404.56 46.0727 404.56 58.2684V59.7318C404.56 71.9275 399.801 83.4186 391.147 92.0911C382.493 100.764 371.027 105.533 358.858 105.533H58.1959Z" fill="#E2E2E2"/>
<path d="M58.1956 105.208C46.1345 105.208 34.7765 100.492 26.1769 91.8741C17.5773 83.2559 12.8718 71.8732 12.8718 59.786V58.3225C12.8718 46.2352 17.5773 34.8526 26.1769 26.2343C34.7765 17.616 46.1345 12.9003 58.1956 12.9003H358.857C370.919 12.9003 382.277 17.616 390.876 26.2343C399.476 34.8526 404.181 46.2352 404.181 58.3225V59.786C404.181 71.8732 399.476 83.2559 390.876 91.8741C382.277 100.492 370.919 105.208 358.857 105.208H58.1956Z" fill="#EBEBEB"/>
<path d="M58.1958 104.883C46.2428 104.883 34.9389 100.167 26.3934 91.6032C17.8479 83.0392 13.1965 71.7107 13.1965 59.7319V58.2684C13.1965 46.2895 17.902 34.9611 26.3934 26.397C34.9389 17.8329 46.1887 13.1714 58.1958 13.1714H358.858C370.811 13.1714 382.114 17.8871 390.66 26.397C399.205 34.9611 403.911 46.2353 403.911 58.2684V59.7319C403.911 71.7107 399.205 83.0392 390.66 91.6032C382.114 100.167 370.865 104.883 358.858 104.883H58.1958Z" fill="#F5F5F5"/>
<path d="M58.1953 104.558C46.2965 104.558 35.1008 99.8963 26.6094 91.3864C18.1179 82.8765 13.4666 71.6565 13.4666 59.786V58.3226C13.4666 46.3979 18.1179 35.1779 26.6094 26.668C35.1008 18.1581 46.2965 13.4966 58.1953 13.4966H358.857C370.756 13.4966 381.952 18.1581 390.389 26.668C398.881 35.1779 403.532 46.3979 403.532 58.3226V59.786C403.532 71.7107 398.881 82.9307 390.389 91.3864C381.898 99.8963 370.702 104.558 358.857 104.558H58.1953Z" fill="white"/>
<path d="M58.1958 104.233C46.4051 104.233 35.2635 99.5711 26.8802 91.1697C18.4969 82.7682 13.8456 71.6024 13.8456 59.7861V58.3226C13.8456 46.5064 18.4969 35.3405 26.8802 26.9391C35.2635 18.5376 46.4051 13.8761 58.1958 13.8761H358.858C370.648 13.8761 381.79 18.5376 390.173 26.9391C398.556 35.3405 403.208 46.5064 403.208 58.3226V59.7861C403.208 71.6024 398.611 82.7682 390.173 91.1697C381.79 99.5711 370.648 104.233 358.858 104.233H58.1958Z" fill="#F5F5F5"/>
<path d="M58.1955 103.907C46.4589 103.907 35.4254 99.3001 27.0963 90.9529C18.7671 82.6056 14.1698 71.5482 14.1698 59.7861V58.3226C14.1698 46.6148 18.7671 35.5031 27.0963 27.1559C35.4254 18.8086 46.4589 14.2014 58.1955 14.2014H358.857C370.54 14.2014 381.627 18.8086 389.957 27.1559C398.286 35.5031 402.883 46.5606 402.883 58.3226V59.7861C402.883 71.494 398.286 82.6056 389.957 90.9529C381.627 99.3001 370.594 103.907 358.857 103.907H58.1955Z" fill="#EBEBEB"/>
<path d="M58.1957 103.528C46.5673 103.528 35.642 98.9749 27.3128 90.6818C19.0377 82.3887 14.4945 71.3855 14.4945 59.7319V58.2684C14.4945 46.6147 19.0377 35.6657 27.3128 27.3727C35.5879 19.0796 46.5673 14.5266 58.1957 14.5266H358.858C370.486 14.5266 381.411 19.0796 389.686 27.3727C397.961 35.6657 402.505 46.6689 402.505 58.2684V59.7319C402.505 71.3855 397.961 82.3345 389.686 90.6818C381.411 98.9749 370.432 103.528 358.858 103.528H58.1957Z" fill="#E2E2E2"/>
<path d="M58.1954 103.203C46.6751 103.203 35.8039 98.6496 27.5829 90.4108C19.3619 82.1719 14.8728 71.2771 14.8728 59.7319V58.2684C14.8728 46.7231 19.416 35.8283 27.5829 27.5895C35.8039 19.3506 46.6751 14.8517 58.1954 14.8517H358.857C370.377 14.8517 381.249 19.4048 389.47 27.5895C397.691 35.8283 402.18 46.7231 402.18 58.2684V59.7319C402.18 71.2771 397.637 82.1719 389.47 90.4108C381.249 98.6496 370.377 103.203 358.857 103.203H58.1954Z" fill="#D8D8D8"/>
<path d="M58.1957 102.877C46.7295 102.877 35.9665 98.3785 27.7996 90.1939C19.6327 82.0092 15.1436 71.2228 15.1436 59.7318V58.2683C15.1436 46.7772 19.6327 35.9908 27.7996 27.8062C35.9665 19.6215 46.7295 15.1227 58.1957 15.1227H358.858C370.324 15.1227 381.087 19.6215 389.254 27.8062C397.421 35.9908 401.91 46.7772 401.91 58.2683V59.7318C401.91 71.2228 397.421 82.0092 389.254 90.1939C381.087 98.3785 370.324 102.877 358.858 102.877H58.1957Z" fill="#CECECE"/>
<path d="M58.1954 102.552C46.8374 102.552 36.1285 98.1076 28.0697 89.9772C20.011 81.8467 15.5219 71.1145 15.5219 59.7861V58.3226C15.5219 46.94 19.9569 36.2078 28.0697 28.1315C36.1826 20.0552 46.8915 15.5564 58.1954 15.5564H358.857C370.215 15.5564 380.924 20.001 388.983 28.1315C397.096 36.262 401.531 46.9942 401.531 58.3226V59.7861C401.531 71.1687 397.096 81.9009 388.983 89.9772C380.87 98.1076 370.161 102.552 358.857 102.552H58.1954Z" fill="#C4C4C4"/>
<path d="M58.1956 102.227C46.9458 102.227 36.2909 97.7824 28.2862 89.7604C20.2816 81.7383 15.8466 71.0603 15.8466 59.7861V58.3226C15.8466 47.0484 20.2816 36.3704 28.2862 28.3483C36.2909 20.3263 46.9458 15.8816 58.1956 15.8816H358.857C370.107 15.8816 380.762 20.3263 388.767 28.3483C396.771 36.3704 401.206 47.0484 401.206 58.3226V59.7861C401.206 71.0603 396.771 81.7383 388.767 89.7604C380.762 97.7824 370.107 102.227 358.857 102.227H58.1956Z" fill="#BABABA"/>
<path d="M58.1953 101.902C46.9996 101.902 36.4529 97.5114 28.5023 89.5435C20.5517 81.5757 16.1708 71.0061 16.1708 59.7861V58.3226C16.1708 47.1025 20.5517 36.533 28.5023 28.5651C36.4529 20.5973 46.9996 16.2068 58.1953 16.2068H358.857C370.053 16.2068 380.546 20.5973 388.55 28.5651C396.501 36.533 400.882 47.1025 400.882 58.3226V59.7861C400.882 71.0061 396.501 81.5215 388.55 89.5435C380.6 97.5114 370.053 101.902 358.857 101.902H58.1953Z" fill="#B1B1B1"/>
<path d="M58.1958 101.522C47.1083 101.522 36.6698 97.1861 28.7733 89.2183C20.8768 81.3046 16.5499 70.8434 16.5499 59.7318V58.2683C16.5499 47.1567 20.8768 36.6955 28.7733 28.7819C36.6698 20.8682 47.1083 16.4778 58.1958 16.4778H358.858C369.945 16.4778 380.384 20.814 388.28 28.7819C396.177 36.6955 400.558 47.1567 400.558 58.2683V59.7318C400.558 70.8434 396.231 81.3046 388.28 89.2183C380.384 97.1319 369.945 101.522 358.858 101.522H58.1958Z" fill="#A7A7A7"/>
<path d="M58.1954 101.197C47.2161 101.197 36.8316 96.8609 28.9892 89.0014C21.1468 81.142 16.8199 70.735 16.8199 59.7318V58.2683C16.8199 47.2651 21.1468 36.8581 28.9892 28.9987C36.8316 21.1392 47.2161 16.803 58.1954 16.803H358.857C369.837 16.803 380.221 21.1392 388.064 28.9987C395.906 36.8581 400.233 47.2651 400.233 58.2683V59.7318C400.233 70.735 395.906 81.142 388.064 89.0014C380.221 96.8609 369.837 101.197 358.857 101.197H58.1954Z" fill="#9D9D9D"/>
<path d="M58.1958 100.872C47.2705 100.872 36.9942 96.5898 29.2059 88.7846C21.4175 80.9793 17.1448 70.6808 17.1448 59.7318V58.2683C17.1448 47.3193 21.4175 37.0207 29.2059 29.2154C36.9942 21.4102 47.2705 17.1282 58.1958 17.1282H358.858C369.783 17.1282 380.059 21.4102 387.848 29.2154C395.636 37.0207 399.909 47.3193 399.909 58.2683V59.7318C399.909 70.6808 395.636 80.9793 387.848 88.7846C380.059 96.5898 369.783 100.872 358.858 100.872H58.1958Z" fill="#939393"/>
<path d="M58.1954 100.547C47.3783 100.547 37.1561 96.2647 29.476 88.5679C21.7958 80.8711 17.5231 70.6267 17.5231 59.7861V58.3226C17.5231 47.482 21.7958 37.2376 29.476 29.5408C37.2102 21.7898 47.3783 17.5619 58.1954 17.5619H358.857C369.674 17.5619 379.897 21.844 387.577 29.5408C395.311 37.2918 399.53 47.482 399.53 58.3226V59.7861C399.53 70.6267 395.311 80.8711 387.577 88.5679C379.843 96.3189 369.674 100.547 358.857 100.547H58.1954Z" fill="#898989"/>
<path d="M58.1959 100.221C47.4869 100.221 37.3188 95.9936 29.6928 88.351C22.0667 80.7084 17.848 70.5182 17.848 59.786V58.3225C17.848 47.5903 22.0667 37.4001 29.6928 29.7575C37.3188 22.0607 47.4328 17.8329 58.1959 17.8329H358.858C369.567 17.8329 379.735 22.0607 387.361 29.7033C394.987 37.3459 399.206 47.5361 399.206 58.2683V59.7318C399.206 70.464 394.987 80.6542 387.361 88.2968C379.735 95.9394 369.567 100.167 358.858 100.167H58.1959V100.221Z" fill="#808080"/>
<path d="M58.1953 99.8963C47.5405 99.8963 37.5346 95.7226 29.9086 88.1342C22.3366 80.5458 18.172 70.464 18.172 59.786V58.3226C18.172 47.6446 22.3366 37.617 29.9086 29.9744C37.4806 22.3859 47.5405 18.2123 58.1953 18.2123H358.857C369.512 18.2123 379.518 22.3859 387.144 29.9744C394.716 37.5628 398.881 47.6446 398.881 58.3226V59.786C398.881 70.464 394.716 80.4916 387.144 88.1342C379.572 95.7226 369.512 99.8963 358.857 99.8963H58.1953Z" fill="#767676"/>
<path d="M58.1957 99.571C47.649 99.571 37.6972 95.3974 30.1793 87.8632C22.6614 80.329 18.4968 70.3556 18.4968 59.786V58.3225C18.4968 47.7529 22.6614 37.7796 30.1793 30.2454C37.6972 22.7111 47.649 18.5375 58.1957 18.5375H358.858C369.404 18.5375 379.356 22.7111 386.874 30.2454C394.392 37.7796 398.556 47.7529 398.556 58.3225V59.786C398.556 70.3556 394.392 80.329 386.874 87.8632C379.356 95.3974 369.404 99.571 358.858 99.571H58.1957Z" fill="#6C6C6C"/>
<path d="M58.1954 99.1916C47.7028 99.1916 37.8592 95.0722 30.3954 87.5921C22.9316 80.1121 18.821 70.2472 18.821 59.7318V58.2683C18.821 47.8071 22.9316 37.8879 30.3954 30.4079C37.8592 22.9279 47.7028 18.8085 58.1954 18.8085H358.857C369.296 18.8085 379.193 22.9279 386.657 30.4079C394.121 37.8879 398.232 47.7529 398.232 58.2683V59.7318C398.232 70.193 394.121 80.1121 386.657 87.5921C379.193 95.0722 369.35 99.1916 358.857 99.1916H58.1954Z" fill="#626262"/>
<path d="M58.1957 98.8665C47.8112 98.8665 38.0218 94.8013 30.612 87.3755C23.2023 79.9496 19.1459 70.1389 19.1459 59.7319V58.2684C19.1459 47.8615 23.2023 38.0507 30.612 30.6249C38.0218 23.1991 47.8112 19.1339 58.1957 19.1339H358.858C369.242 19.1339 379.031 23.1991 386.441 30.6249C393.851 38.0507 397.907 47.8615 397.907 58.2684V59.7319C397.907 70.1389 393.851 79.9496 386.441 87.3755C379.031 94.8013 369.242 98.8665 358.858 98.8665H58.1957Z" fill="#585858"/>
<path d="M58.1955 98.5412C47.9192 98.5412 38.1838 94.476 30.8823 87.1586C23.5266 79.787 19.5243 70.0846 19.5243 59.786V58.3226C19.5243 48.024 23.5807 38.2674 30.8823 30.95C38.2379 23.5784 47.9192 19.5674 58.1955 19.5674H358.857C369.134 19.5674 378.869 23.6326 386.171 30.95C393.526 38.3216 397.529 48.024 397.529 58.3226V59.786C397.529 70.0846 393.472 79.8412 386.171 87.1586C378.815 94.5302 369.134 98.5412 358.857 98.5412H58.1955Z" fill="#4E4E4E"/>
<path d="M58.1956 98.216C47.9734 98.216 38.4002 94.2049 31.0987 86.9417C23.8512 79.6785 19.7948 70.0304 19.7948 59.786V58.3225C19.7948 48.0782 23.7971 38.4842 31.0987 31.1668C38.3462 23.9036 47.9734 19.8926 58.1956 19.8926H358.857C369.026 19.8926 378.653 23.9036 385.954 31.1668C393.202 38.43 397.204 48.0782 397.204 58.3225V59.786C397.204 70.0304 393.202 79.6243 385.954 86.9417C378.707 94.2049 369.08 98.216 358.857 98.216H58.1956Z" fill="#454545"/>
<path d="M58.1953 97.8907C48.0813 97.8907 38.5622 93.9339 31.3147 86.6707C24.1214 79.4617 20.119 69.8678 20.119 59.786V58.3225C20.119 48.1865 24.0673 38.6468 31.3147 31.4378C38.5081 24.2288 48.0813 20.2178 58.1953 20.2178H358.857C368.971 20.2178 378.49 24.1746 385.684 31.4378C392.877 38.6468 396.879 48.2407 396.879 58.3225V59.786C396.879 69.922 392.931 79.4617 385.684 86.6707C378.436 93.8797 368.917 97.8907 358.857 97.8907H58.1953Z" fill="#3B3B3B"/>
<path d="M58.1956 97.5655C48.1898 97.5655 38.7248 93.6087 31.5855 86.4539C24.4462 79.2991 20.4979 69.8135 20.4979 59.786V58.3225C20.4979 48.2949 24.4462 38.8094 31.5855 31.6546C38.7248 24.4998 48.1898 20.543 58.1956 20.543H358.857C368.863 20.543 378.328 24.4998 385.468 31.6546C392.607 38.8094 396.555 48.2949 396.555 58.3225V59.786C396.555 69.8135 392.607 79.2991 385.468 86.4539C378.328 93.6087 368.863 97.5655 358.857 97.5655H58.1956Z" fill="#313131"/>
<path d="M58.1954 97.1862C48.2437 97.1862 38.8869 93.2836 31.8016 86.183C24.7164 79.0824 20.8223 69.7053 20.8223 59.7319V58.2684C20.8223 48.2951 24.7164 38.9179 31.8016 31.8173C38.8869 24.7167 48.2437 20.8141 58.1954 20.8141H358.857C368.809 20.8141 378.166 24.7167 385.251 31.8173C392.336 38.9179 396.23 48.2951 396.23 58.2684V59.7319C396.23 69.7053 392.336 79.0824 385.251 86.183C378.166 93.2836 368.809 97.1862 358.857 97.1862H58.1954Z" fill="#272727"/>
<path d="M58.1957 96.8609C48.3522 96.8609 39.0494 93.0125 32.0183 85.9661C24.9872 78.9197 21.1471 69.651 21.1471 59.786V58.3226C21.1471 48.4576 24.9872 39.1347 32.0183 32.1425C39.0494 25.0961 48.3522 21.2477 58.1957 21.2477H358.858C368.701 21.2477 378.004 25.0961 384.981 32.1425C392.012 39.1889 395.852 48.5118 395.852 58.3226V59.786C395.852 69.651 392.012 78.9739 384.981 85.9661C377.95 93.0125 368.701 96.8609 358.858 96.8609H58.1957Z" fill="#1D1D1D"/>
<path d="M58.1952 96.5356C48.4598 96.5356 39.2111 92.6872 32.2882 85.7492C25.3111 78.757 21.4711 69.5425 21.4711 59.786V58.3225C21.4711 48.5659 25.3111 39.3514 32.2882 32.3592C39.2652 25.367 48.4598 21.5186 58.1952 21.5186H358.857C368.592 21.5186 377.787 25.367 384.764 32.3592C391.741 39.3514 395.527 48.5659 395.527 58.3225V59.786C395.527 69.5425 391.687 78.757 384.764 85.7492C377.787 92.7414 368.592 96.5356 358.857 96.5356H58.1952Z" fill="#141414"/>
<path d="M58.1955 96.2105C48.5142 96.2105 39.4278 92.4163 32.5048 85.4783C25.636 78.5403 21.7959 69.4342 21.7959 59.7318V58.2683C21.7959 48.566 25.5819 39.4599 32.5048 32.5219C39.3737 25.6381 48.5142 21.7897 58.1955 21.7897H358.857C368.539 21.7897 377.625 25.5839 384.548 32.5219C391.471 39.4599 395.257 48.566 395.257 58.2683V59.7318C395.257 69.4342 391.471 78.5403 384.548 85.4783C377.679 92.362 368.539 96.2105 358.857 96.2105H58.1955Z" fill="#0A0A0A"/>
<path d="M58.1953 95.8853C48.6222 95.8853 39.5899 92.0911 32.7751 85.2615C25.9603 78.4319 22.1743 69.38 22.1743 59.7861V58.3226C22.1743 48.7286 25.9603 39.6767 32.7751 32.8472C39.5899 25.9634 48.6222 22.1692 58.1953 22.1692H358.857C368.43 22.1692 377.463 25.9634 384.277 32.793C391.092 39.6225 394.878 48.6744 394.878 58.2684V59.7319C394.878 69.3258 391.092 78.3777 384.277 85.2073C377.463 92.0369 368.43 95.8311 358.857 95.8311H58.1953V95.8853Z" fill="black"/>
</mask>
<g mask="url(#mask0)">
<path opacity="0.5" d="M358.858 0H58.1961C50.3537 0 42.7817 1.57189 35.5883 4.60726C28.6654 7.53422 22.4455 11.7621 17.0911 17.1282C11.7366 22.4943 7.57198 28.6734 4.59728 35.6114C1.56848 42.8204 0 50.4088 0 58.2683V59.7317C0 67.5912 1.56848 75.1796 4.59728 82.3886C7.5179 89.3266 11.7366 95.5599 17.0911 100.872C22.4455 106.238 28.6654 110.412 35.5883 113.393C42.7817 116.428 50.3537 118 58.1961 118H358.858C366.7 118 374.272 116.428 381.466 113.393C388.389 110.466 394.609 106.238 399.909 100.872C405.263 95.5057 409.428 89.2724 412.403 82.3886C415.432 75.1796 417 67.5912 417 59.7317V58.2683C417 50.4088 415.432 42.8204 412.403 35.6114C409.482 28.6734 405.263 22.4401 399.909 17.1282C394.554 11.7621 388.335 7.58842 381.466 4.60726C374.326 1.57189 366.7 0 358.858 0Z" fill="url(#paint1_linear)"/>
<path d="M360.21 16.3695C371.352 16.3695 381.79 20.7599 389.741 28.6736C397.637 36.5872 402.018 47.1026 402.018 58.2684V59.7861C402.018 70.9519 397.637 81.4131 389.741 89.381C381.844 97.2946 371.352 101.685 360.21 101.685H56.8438C45.7021 101.685 35.2636 97.2946 27.313 89.381C19.4165 81.4673 15.0356 70.9519 15.0356 59.7861V58.2684C15.0356 47.1026 19.4165 36.6414 27.313 28.6736C35.2095 20.7599 45.7021 16.3695 56.8438 16.3695H360.21ZM358.858 11.3286H58.1959C45.7562 11.3286 33.9656 16.2069 25.0955 25.0962C16.2255 33.9854 11.3578 45.7475 11.3578 58.2684V59.7319C11.3578 72.1986 16.2255 84.0149 25.0955 92.9042C33.9656 101.793 45.7021 106.672 58.1959 106.672H358.858C371.297 106.672 383.088 101.793 391.958 92.9042C400.828 84.0149 405.696 72.2528 405.696 59.7319V58.2684C405.696 45.8017 400.828 33.9854 391.958 25.0962C383.088 16.2069 371.352 11.3286 358.858 11.3286Z" fill="url(#paint2_linear)"/>
</g>
<defs>
<linearGradient id="paint0_linear" x1="208.525" y1="130.604" x2="208.525" y2="-16.3384" gradientUnits="userSpaceOnUse">
<stop stop-color="#64DCDC"/>
<stop offset="1" stop-color="#001C78"/>
</linearGradient>
<linearGradient id="paint1_linear" x1="0.0243385" y1="59.0239" x2="417.025" y2="59.0239" gradientUnits="userSpaceOnUse">
<stop offset="0.00401973" stop-color="#0078DC"/>
<stop offset="1" stop-color="#64DCDC"/>
</linearGradient>
<linearGradient id="paint2_linear" x1="11.3297" y1="59.0229" x2="405.716" y2="59.0229" gradientUnits="userSpaceOnUse">
<stop stop-color="#0078DC"/>
<stop offset="1" stop-color="#64DCDC"/>
</linearGradient>
</defs>
</svg>
