<svg width="417" height="118" viewBox="0 0 417 118" fill="none" xmlns="http://www.w3.org/2000/svg">
<path opacity="0.35" d="M358.858 0H58.142C50.2996 0 42.7276 1.57189 35.5342 4.60726C28.6113 7.53422 22.4455 11.7621 17.091 17.074C11.7366 22.4401 7.5179 28.6734 4.59728 35.6114C1.56848 42.8204 0 50.463 0 58.2683V59.7317C0 67.5912 1.56848 75.1796 4.59728 82.3886C7.5179 89.3266 11.7366 95.5599 17.091 100.872C22.4455 106.238 28.6654 110.412 35.5883 113.393C42.7817 116.428 50.3537 118 58.1961 118H358.858C366.7 118 374.272 116.428 381.466 113.393C388.389 110.466 394.609 106.238 399.909 100.872C405.263 95.5057 409.428 89.2724 412.403 82.3886C415.432 75.1796 417 67.5912 417 59.7317V58.2683C417 50.4088 415.432 42.8204 412.403 35.6114C409.482 28.6734 405.263 22.4401 399.909 17.074C394.554 11.7079 388.335 7.53422 381.466 4.55305C374.272 1.51768 366.646 0 358.858 0Z" fill="url(#paint0_linear)"/>
<mask id="mask0" mask-type="alpha" maskUnits="userSpaceOnUse" x="4" y="4" width="409" height="110">
<path d="M58.1421 113.23C43.9176 113.23 30.5585 107.647 20.4445 97.5113C10.3845 87.3753 4.81372 73.9872 4.81372 59.7318V58.2683C4.81372 44.0671 10.3845 30.6247 20.4985 20.4888C30.6126 10.3528 43.9717 4.7699 58.1962 4.7699H358.858C373.029 4.7699 386.442 10.3528 396.556 20.4888C406.67 30.6247 412.241 44.0129 412.241 58.2683V59.7318C412.241 73.933 406.67 87.3753 396.556 97.5113C386.442 107.647 373.083 113.23 358.858 113.23H58.1421Z" fill="black"/>
<path d="M58.1428 112.851C44.0265 112.851 30.7214 107.322 20.7156 97.2403C10.6556 87.1585 5.13892 73.8788 5.13892 59.7318V58.2683C5.13892 44.1213 10.6556 30.7874 20.7156 20.7598C30.7755 10.6781 44.0265 5.14935 58.1428 5.14935H358.805C372.921 5.14935 386.226 10.6781 396.232 20.7598C406.292 30.8416 411.809 44.1213 411.809 58.2683V59.7318C411.809 73.8788 406.292 87.2127 396.232 97.2403C386.172 107.322 372.921 112.851 358.805 112.851H58.1428Z" fill="#0A0A0A"/>
<path d="M58.1421 112.526C44.1339 112.526 30.8829 106.997 20.9312 97.0235C10.9794 87.0501 5.46268 73.7704 5.46268 59.7318V58.2683C5.46268 44.2297 10.9794 31.0042 20.9312 20.9766C30.8829 11.0033 44.1339 5.47456 58.1421 5.47456H358.804C372.812 5.47456 386.009 11.0033 396.015 20.9766C405.967 30.95 411.483 44.2297 411.483 58.2683V59.7318C411.483 73.7704 405.967 87.0501 396.015 97.0235C386.063 106.997 372.812 112.526 358.804 112.526H58.1421Z" fill="#141414"/>
<path d="M58.1421 112.2C44.188 112.2 31.0993 106.726 21.1475 96.8066C11.2498 86.8875 5.7872 73.7162 5.7872 59.7318V58.2683C5.7872 44.2839 11.2498 31.1668 21.1475 21.1934C31.0452 11.2743 44.188 5.79976 58.1421 5.79976H358.804C372.758 5.79976 385.847 11.2743 395.798 21.1934C405.696 31.1126 411.159 44.2839 411.159 58.2683V59.7318C411.159 73.7162 405.696 86.8333 395.798 96.8066C385.901 106.726 372.758 112.2 358.804 112.2H58.1421Z" fill="#1D1D1D"/>
<path d="M58.1421 111.875C44.2962 111.875 31.2616 106.455 21.418 96.5899C11.5744 86.7249 6.16583 73.662 6.16583 59.786V58.3225C6.16583 44.4465 11.5744 31.3836 21.418 21.5187C31.2616 11.6537 44.2962 6.2334 58.1421 6.2334H358.804C372.65 6.2334 385.685 11.6537 395.528 21.5187C405.372 31.3836 410.78 44.4465 410.78 58.3225V59.786C410.78 73.662 405.372 86.7249 395.528 96.5899C385.685 106.455 372.65 111.875 358.804 111.875H58.1421Z" fill="#272727"/>
<path d="M58.142 111.55C44.4043 111.55 31.4237 106.13 21.6342 96.3188C11.8447 86.5081 6.43619 73.4993 6.43619 59.7318V58.2683C6.43619 44.5007 11.8447 31.492 21.6342 21.6812C31.4237 11.8705 44.4043 6.45018 58.142 6.45018H358.804C372.542 6.45018 385.522 11.8705 395.312 21.6812C405.101 31.492 410.51 44.5007 410.51 58.2683V59.7318C410.51 73.4993 405.101 86.5081 395.312 96.3188C385.522 106.13 372.542 111.55 358.804 111.55H58.142Z" fill="#313131"/>
<path d="M58.142 111.225C44.4584 111.225 31.586 105.859 21.8506 96.102C12.1152 86.3454 6.76071 73.4451 6.76071 59.7317V58.2683C6.76071 44.5549 12.1152 31.6546 21.8506 21.898C31.586 12.1415 44.4584 6.77538 58.142 6.77538H358.804C372.488 6.77538 385.36 12.1415 395.095 21.898C404.831 31.6546 410.185 44.5549 410.185 58.2683V59.7317C410.185 73.4451 404.831 86.3454 395.095 96.102C385.36 105.859 372.488 111.225 358.804 111.225H58.142Z" fill="#3B3B3B"/>
<path d="M58.1421 110.899C44.5666 110.899 31.7483 105.588 22.1211 95.8852C12.4397 86.1829 7.13934 73.391 7.13934 59.786V58.3225C7.13934 44.7176 12.4397 31.8714 22.1211 22.2233C31.8024 12.4667 44.5666 7.15485 58.1421 7.15485H358.804C372.379 7.15485 385.198 12.4667 394.825 22.1691C404.506 31.8714 409.807 44.6633 409.807 58.2683V59.7318C409.807 73.3367 404.506 86.1829 394.825 95.831C385.144 105.533 372.379 110.845 358.804 110.845H58.1421V110.899Z" fill="#454545"/>
<path d="M58.142 110.52C44.6747 110.52 31.9646 105.208 22.3374 95.6142C12.7642 86.0202 7.46384 73.2283 7.46384 59.7318V58.2683C7.46384 44.7717 12.7642 32.034 22.3374 22.3859C31.9105 12.7919 44.6206 7.48004 58.142 7.48004H358.804C372.271 7.48004 384.981 12.7919 394.609 22.3859C404.182 31.9798 409.482 44.7175 409.482 58.2683V59.7318C409.482 73.2283 404.182 85.966 394.609 95.6142C385.035 105.208 372.325 110.52 358.804 110.52H58.142Z" fill="#4E4E4E"/>
<path d="M58.142 110.195C44.7288 110.195 32.1269 104.937 22.5537 95.3973C13.0346 85.8576 7.78833 73.1741 7.78833 59.7318V58.2683C7.78833 44.8259 13.0346 32.1966 22.5537 22.6027C32.0728 13.0629 44.7288 7.80525 58.142 7.80525H358.804C372.217 7.80525 384.819 13.0629 394.338 22.6027C403.857 32.1424 409.104 44.8259 409.104 58.2683V59.7318C409.104 73.1741 403.857 85.8034 394.338 95.3973C384.819 104.937 372.163 110.195 358.804 110.195H58.142Z" fill="#585858"/>
<path d="M58.142 109.87C44.837 109.87 32.2891 104.612 22.8241 95.1263C13.3592 85.6408 8.11285 73.0657 8.11285 59.7317V58.2682C8.11285 44.9343 13.3051 32.3592 22.8241 22.8737C32.2891 13.3881 44.837 8.13045 58.142 8.13045H358.804C372.109 8.13045 384.657 13.3339 394.122 22.8737C403.587 32.3592 408.833 44.9343 408.833 58.2682V59.7317C408.833 73.0657 403.641 85.6408 394.122 95.1263C384.657 104.612 372.109 109.87 358.804 109.87H58.142Z" fill="#626262"/>
<path d="M58.1422 109.544C44.9453 109.544 32.4515 104.341 23.0406 94.9095C13.6297 85.4782 8.4375 73.0115 8.4375 59.7317V58.2682C8.4375 45.0427 13.6297 32.5218 23.0406 23.0905C32.4515 13.6591 44.8912 8.45566 58.1422 8.45566H358.804C372.001 8.45566 384.495 13.6591 393.906 23.0905C403.316 32.5218 408.509 44.9885 408.509 58.2682V59.7317C408.509 72.9573 403.316 85.4782 393.906 94.9095C384.495 104.341 372.055 109.544 358.804 109.544H58.1422Z" fill="#6C6C6C"/>
<path d="M58.142 109.219C44.9992 109.219 32.6136 104.07 23.3109 94.6927C13.9541 85.3156 8.81598 72.9031 8.81598 59.7859V58.3225C8.81598 45.1511 13.9541 32.7386 23.3109 23.4157C32.6677 14.0386 45.0533 8.8893 58.142 8.8893H358.804C371.947 8.8893 384.332 14.0386 393.635 23.4157C402.992 32.7928 408.13 45.2053 408.13 58.3225V59.7859C408.13 72.9573 402.992 85.3698 393.635 94.6927C384.278 104.07 371.893 109.219 358.804 109.219H58.142Z" fill="#767676"/>
<path d="M58.1421 108.894C45.1074 108.894 32.7759 103.745 23.5273 94.4759C14.2246 85.153 9.1405 72.8489 9.1405 59.786V58.3225C9.1405 45.2596 14.2786 32.9555 23.5273 23.6326C32.83 14.3097 45.1074 9.21458 58.1421 9.21458H358.804C371.839 9.21458 384.116 14.3639 393.419 23.6326C402.721 32.9555 407.805 45.2596 407.805 58.3225V59.786C407.805 72.8489 402.667 85.2072 393.419 94.4759C384.116 103.799 371.839 108.894 358.804 108.894H58.1421Z" fill="#7F7F7F"/>
<path d="M58.142 108.514C45.1615 108.514 32.9922 103.419 23.7436 94.2049C14.549 84.9904 9.465 72.7405 9.465 59.7317V58.2683C9.465 45.2595 14.549 33.0639 23.7436 23.7951C32.9382 14.5806 45.1615 9.48553 58.142 9.48553H358.804C371.73 9.48553 383.954 14.5806 393.202 23.7951C402.397 33.0096 407.481 45.2595 407.481 58.2683V59.7317C407.481 72.7405 402.397 84.9361 393.202 94.2049C384.008 103.419 371.784 108.514 358.804 108.514H58.142Z" fill="#898989"/>
<path d="M58.1422 108.189C45.2698 108.189 33.1547 103.148 24.0142 93.9338C14.8737 84.7735 9.78967 72.5778 9.78967 59.7317V58.2682C9.78967 45.3679 14.8196 33.2264 24.0142 24.0661C33.1547 14.9058 45.3239 9.81073 58.1422 9.81073H358.804C371.676 9.81073 383.792 14.8516 392.932 24.0661C402.073 33.2264 407.157 45.4221 407.157 58.2682V59.7317C407.157 72.632 402.127 84.7735 392.932 93.9338C383.792 103.094 371.622 108.189 358.804 108.189H58.1422Z" fill="#939393"/>
<path d="M58.1422 107.864C45.3779 107.864 33.3169 102.823 24.2305 93.7171C15.1441 84.611 10.1141 72.5237 10.1141 59.7318V58.2683C10.1141 45.4764 15.1441 33.3891 24.2305 24.283C33.3169 15.1769 45.3779 10.136 58.1422 10.136H358.804C371.568 10.136 383.629 15.1769 392.716 24.283C401.802 33.3891 406.832 45.4764 406.832 58.2683V59.7318C406.832 72.5237 401.802 84.611 392.716 93.7171C383.629 102.823 371.568 107.864 358.804 107.864H58.1422Z" fill="#9D9D9D"/>
<path d="M58.1421 107.539C45.432 107.539 33.4791 102.552 24.4468 93.5003C15.4145 84.4484 10.4386 72.4695 10.4386 59.7318V58.2683C10.4386 45.5306 15.4145 33.5517 24.4468 24.4998C33.4791 15.4479 45.432 10.4612 58.1421 10.4612H358.804C371.514 10.4612 383.467 15.4479 392.499 24.4998C401.532 33.5517 406.508 45.5306 406.508 58.2683V59.7318C406.508 72.4695 401.532 84.4484 392.499 93.5003C383.467 102.552 371.514 107.539 358.804 107.539H58.1421Z" fill="#A7A7A7"/>
<path d="M58.142 107.214C45.5401 107.214 33.6412 102.281 24.7171 93.2835C15.7389 84.2858 10.8171 72.4153 10.8171 59.786V58.3225C10.8171 45.6932 15.7389 33.7685 24.7171 24.825C33.6953 15.8273 45.5401 10.8949 58.142 10.8949H358.804C371.406 10.8949 383.251 15.8273 392.229 24.825C401.207 33.8227 406.129 45.6932 406.129 58.3225V59.786C406.129 72.4153 401.207 84.34 392.229 93.2835C383.251 102.281 371.406 107.214 358.804 107.214H58.142Z" fill="#B1B1B1"/>
<path d="M58.1422 106.888C45.6484 106.888 33.8577 101.956 24.9336 93.0666C16.0095 84.1231 11.1418 72.3069 11.1418 59.786V58.3225C11.1418 45.8016 16.0636 33.9853 24.9336 25.0418C33.8577 16.0983 45.6484 11.22 58.1422 11.22H358.804C371.298 11.22 383.088 16.1525 392.013 25.0418C400.937 33.9853 405.804 45.8016 405.804 58.3225V59.786C405.804 72.3069 400.883 84.1231 392.013 93.0666C383.088 102.01 371.298 106.888 358.804 106.888H58.1422Z" fill="#BABABA"/>
<path d="M58.1421 106.509C45.7024 106.509 34.0199 101.631 25.1499 92.7414C16.3339 83.8521 11.4121 72.1443 11.4121 59.6776V58.2141C11.4121 45.7474 16.2798 34.0395 25.1499 25.1503C34.0199 16.3694 45.7565 11.4911 58.1421 11.4911H358.804C371.244 11.4911 382.926 16.3694 391.796 25.2587C400.666 34.0938 405.534 45.8558 405.534 58.3225V59.786C405.534 72.2527 400.666 83.9605 391.796 92.8498C382.926 101.685 371.244 106.617 358.804 106.617H58.1421V106.509Z" fill="#C4C4C4"/>
<path d="M58.1421 106.184C45.8106 106.184 34.1822 101.36 25.4203 92.5246C16.6585 83.7437 11.7908 72.0901 11.7908 59.7318V58.2683C11.7908 45.91 16.6044 34.2564 25.4203 25.4755C34.1822 16.6946 45.8106 11.8163 58.1421 11.8163H358.804C371.136 11.8163 382.764 16.6404 391.526 25.4755C400.288 34.2564 405.155 45.91 405.155 58.2683V59.7318C405.155 72.0901 400.342 83.7437 391.526 92.5246C382.764 101.306 371.136 106.184 358.804 106.184H58.1421Z" fill="#CECECE"/>
<path d="M58.1421 105.859C45.9188 105.859 34.3445 101.034 25.6367 92.3078C16.9289 83.5811 12.1153 71.9817 12.1153 59.7318V58.2683C12.1153 46.0184 16.9289 34.419 25.6367 25.6923C34.3445 16.9656 45.9188 12.1415 58.1421 12.1415H358.804C371.027 12.1415 382.602 16.9656 391.309 25.6923C400.017 34.419 404.831 46.0184 404.831 58.2683V59.7318C404.831 71.9817 400.017 83.5811 391.309 92.3078C382.602 101.034 371.027 105.859 358.804 105.859H58.1421Z" fill="#D8D8D8"/>
<path d="M58.1421 105.533C45.9729 105.533 34.5067 100.763 25.853 92.091C17.1993 83.4185 12.4398 71.9274 12.4398 59.7317V58.2683C12.4398 46.0726 17.1993 34.5815 25.853 25.9091C34.5067 17.2366 45.9729 12.4667 58.1421 12.4667H358.804C370.973 12.4667 382.439 17.2366 391.093 25.9091C399.747 34.5815 404.506 46.0726 404.506 58.2683V59.7317C404.506 71.9274 399.747 83.4185 391.093 92.091C382.439 100.763 370.973 105.533 358.804 105.533H58.1421Z" fill="#E2E2E2"/>
<path d="M58.1422 105.208C46.0811 105.208 34.7231 100.438 26.1235 91.8742C17.5239 83.2559 12.8184 71.8732 12.8184 59.786V58.3225C12.8184 46.2352 17.5239 34.8526 26.1235 26.2343C34.7231 17.616 46.0811 12.9004 58.1422 12.9004H358.804C370.865 12.9004 382.223 17.6702 390.823 26.2343C399.422 34.8526 404.128 46.2352 404.128 58.3225V59.786C404.128 71.8732 399.422 83.2559 390.823 91.8742C382.223 100.492 370.865 105.208 358.804 105.208H58.1422Z" fill="#EBEBEB"/>
<path d="M58.1421 104.883C46.1892 104.883 34.8853 100.167 26.3398 91.6574C17.7943 83.0933 13.1429 71.8191 13.1429 59.786V58.3225C13.1429 46.3436 17.8484 35.0152 26.3398 26.4511C34.8853 17.8871 46.1351 13.1714 58.1421 13.1714H358.804C370.757 13.1714 382.061 17.8871 390.606 26.4511C399.152 35.0152 403.857 46.2894 403.857 58.3225V59.786C403.857 71.7649 399.152 83.0933 390.606 91.6574C382.061 100.221 370.811 104.883 358.804 104.883H58.1421Z" fill="#F5F5F5"/>
<path d="M58.1421 104.558C46.2433 104.558 35.0476 99.8962 26.5562 91.3864C18.1188 82.8765 13.4674 71.6565 13.4674 59.7318V58.2683C13.4674 46.3437 18.1188 35.1236 26.6102 26.6137C35.1017 18.1039 46.2974 13.4424 58.1962 13.4424H358.858C370.757 13.4424 381.953 18.1039 390.39 26.6137C398.881 35.0694 403.533 46.3437 403.533 58.2683V59.7318C403.533 71.6565 398.881 82.8765 390.39 91.3864C381.899 99.842 370.703 104.558 358.858 104.558H58.1421Z" fill="white"/>
<path d="M58.1421 104.178C46.3515 104.178 35.2098 99.5168 26.8266 91.1153C18.4433 82.7138 13.7919 71.548 13.7919 59.7317V58.2683C13.7919 46.452 18.4433 35.2862 26.8266 26.8847C35.2098 18.4832 46.3515 13.8218 58.1421 13.8218H358.804C370.595 13.8218 381.736 18.4832 390.12 26.8847C398.503 35.2862 403.154 46.452 403.154 58.2683V59.7317C403.154 71.548 398.503 82.7138 390.12 91.1153C381.736 99.5168 370.595 104.178 358.804 104.178H58.1421Z" fill="#F5F5F5"/>
<path d="M58.1421 103.853C46.4055 103.853 35.3721 99.2458 27.0429 90.8985C18.7137 82.5512 14.1164 71.4938 14.1164 59.7318V58.2683C14.1164 46.5062 18.7137 35.4488 27.0429 27.1015C35.4262 18.7543 46.4596 14.147 58.1421 14.147H358.804C370.486 14.147 381.574 18.7543 389.903 27.1015C398.232 35.4488 402.83 46.5062 402.83 58.2683V59.7318C402.83 71.4938 398.232 82.5512 389.903 90.8985C381.574 99.2458 370.541 103.853 358.804 103.853H58.1421Z" fill="#EBEBEB"/>
<path d="M58.1421 103.528C46.5137 103.528 35.5884 98.9748 27.2592 90.6817C18.9841 82.3887 14.4409 71.3854 14.4409 59.7318V58.2683C14.4409 46.6147 18.9841 35.6656 27.2592 27.3726C35.5343 19.0795 46.5137 14.5265 58.1421 14.5265H358.804C370.432 14.5265 381.358 19.0795 389.633 27.3726C397.908 35.6656 402.451 46.6689 402.451 58.2683V59.7318C402.451 71.3854 397.908 82.3345 389.633 90.6817C381.358 98.9748 370.378 103.528 358.804 103.528H58.1421Z" fill="#E2E2E2"/>
<path d="M58.1422 103.203C46.6219 103.203 35.7507 98.6495 27.5297 90.4649C19.3087 82.226 14.8196 71.3312 14.8196 59.786V58.3225C14.8196 46.7772 19.3628 35.8824 27.5297 27.6436C35.7507 19.4047 46.6219 14.8517 58.1422 14.8517H358.804C370.324 14.8517 381.195 19.4047 389.417 27.6436C397.638 35.8824 402.181 46.7772 402.181 58.3225V59.786C402.181 71.3312 397.638 82.226 389.417 90.4649C381.195 98.7037 370.324 103.203 358.804 103.203H58.1422Z" fill="#D8D8D8"/>
<path d="M58.142 102.877C46.6759 102.877 35.9129 98.3785 27.7459 90.1939C19.579 82.0092 15.0899 71.2228 15.0899 59.7318V58.2683C15.0899 46.7773 19.579 35.9908 27.7459 27.8062C35.9129 19.6215 46.6759 15.1227 58.142 15.1227H358.804C370.27 15.1227 381.033 19.6215 389.2 27.8062C397.367 35.9908 401.856 46.7773 401.856 58.2683V59.7318C401.856 71.2228 397.367 82.0092 389.2 90.1939C381.033 98.3785 370.27 102.877 358.804 102.877H58.142Z" fill="#CECECE"/>
<path d="M58.1421 102.552C46.7841 102.552 36.0752 98.1075 28.0164 89.9771C19.9036 81.8466 15.4686 71.1144 15.4686 59.786V58.3225C15.4686 46.9399 19.9036 36.2077 28.0164 28.1314C36.1293 20.001 46.8382 15.5563 58.1421 15.5563H358.804C370.162 15.5563 380.871 20.001 388.93 28.1314C397.043 36.2619 401.478 46.9399 401.478 58.3225V59.786C401.478 71.1686 397.043 81.9008 388.93 89.9771C380.817 98.0533 370.108 102.552 358.804 102.552H58.1421Z" fill="#C4C4C4"/>
<path d="M58.1421 102.173C46.8923 102.173 36.2374 97.728 28.2327 89.706C20.2281 81.6839 15.7931 71.0059 15.7931 59.7317V58.2682C15.7931 46.994 20.2281 36.316 28.2327 28.294C36.2374 20.2719 46.8923 15.8273 58.1421 15.8273H358.804C370.054 15.8273 380.709 20.2719 388.713 28.294C396.718 36.316 401.153 46.994 401.153 58.2682V59.7317C401.153 71.0059 396.718 81.6839 388.713 89.706C380.709 97.728 370.054 102.173 358.804 102.173H58.1421Z" fill="#BABABA"/>
<path d="M58.1421 101.848C46.9463 101.848 36.3997 97.4571 28.4491 89.4893C20.4985 81.5214 16.1176 70.9518 16.1176 59.7318V58.2683C16.1176 47.0483 20.4985 36.4787 28.4491 28.5108C36.3997 20.543 46.9463 16.1526 58.1421 16.1526H358.804C370 16.1526 380.492 20.543 388.497 28.5108C396.448 36.4787 400.828 47.0483 400.828 58.2683V59.7318C400.828 70.9518 396.448 81.5214 388.497 89.4893C380.546 97.4571 370 101.848 358.804 101.848H58.1421Z" fill="#B1B1B1"/>
<path d="M58.1421 101.522C47.0546 101.522 36.616 97.1861 28.7195 89.2724C20.823 81.3588 16.4962 70.8976 16.4962 59.786V58.3225C16.4962 47.2109 20.823 36.7497 28.7195 28.836C36.616 20.9224 47.0546 16.532 58.1421 16.532H358.804C369.892 16.532 380.33 20.8682 388.227 28.836C396.123 36.7497 400.504 47.2109 400.504 58.3225V59.786C400.504 70.8976 396.177 81.3588 388.227 89.2724C380.33 97.1861 369.892 101.522 358.804 101.522H58.1421Z" fill="#A7A7A7"/>
<path d="M58.1421 101.197C47.1627 101.197 36.7782 96.8609 28.9358 89.0014C21.0934 81.142 16.7666 70.735 16.7666 59.7318V58.2683C16.7666 47.2651 21.0934 36.8581 28.9358 28.9987C36.7782 21.1392 47.1627 16.803 58.1421 16.803H358.804C369.783 16.803 380.168 21.1392 388.01 28.9987C395.853 36.8581 400.179 47.2651 400.179 58.2683V59.7318C400.179 70.735 395.853 81.142 388.01 89.0014C380.168 96.8609 369.783 101.197 358.804 101.197H58.1421Z" fill="#9D9D9D"/>
<path d="M58.142 100.872C47.2167 100.872 36.9405 96.5898 29.1522 88.7846C21.3638 80.9793 17.0911 70.6808 17.0911 59.7318V58.2683C17.0911 47.3193 21.3638 37.0207 29.1522 29.2155C36.9405 21.4102 47.2167 17.1282 58.142 17.1282H358.804C369.729 17.1282 380.005 21.4102 387.794 29.2155C395.582 37.0207 399.855 47.3193 399.855 58.2683V59.7318C399.855 70.6808 395.582 80.9793 387.794 88.7846C380.005 96.5898 369.729 100.872 358.804 100.872H58.142Z" fill="#939393"/>
<path d="M58.1421 100.547C47.3249 100.547 37.1028 96.2646 29.4226 88.5678C21.6884 80.8167 17.4697 70.6266 17.4697 59.786V58.3225C17.4697 47.4819 21.7425 37.2375 29.4226 29.5407C37.1569 21.7896 47.3249 17.5618 58.1421 17.5618H358.804C369.621 17.5618 379.843 21.8438 387.523 29.5407C395.258 37.2917 399.476 47.4819 399.476 58.3225V59.786C399.476 70.6266 395.204 80.8709 387.523 88.5678C379.789 96.3188 369.621 100.547 358.804 100.547H58.1421Z" fill="#898989"/>
<path d="M58.1421 100.221C47.4331 100.221 37.265 95.9936 29.639 88.351C22.0129 80.6542 17.7942 70.5182 17.7942 59.7318V58.2683C17.7942 47.5361 22.0129 37.3459 29.639 29.7033C37.265 22.0607 47.4331 17.8329 58.1421 17.8329H358.804C369.513 17.8329 379.681 22.0607 387.307 29.7033C394.933 37.3459 399.152 47.5361 399.152 58.2683V59.7318C399.152 70.464 394.933 80.6542 387.307 88.2968C379.681 95.9394 369.513 100.167 358.804 100.167H58.1421V100.221Z" fill="#808080"/>
<path d="M58.1421 99.842C47.4872 99.842 37.4814 95.6684 29.8553 88.08C22.2833 80.4915 18.1187 70.4098 18.1187 59.7318V58.2683C18.1187 47.5903 22.2833 37.5627 29.8553 29.9201C37.4814 22.3317 47.5413 18.1581 58.1421 18.1581H358.804C369.459 18.1581 379.465 22.3317 387.091 29.9201C394.663 37.5085 398.827 47.5903 398.827 58.2683V59.7318C398.827 70.4098 394.663 80.4373 387.091 88.08C379.519 95.6684 369.459 99.842 358.804 99.842H58.1421Z" fill="#767676"/>
<path d="M58.142 99.5168C47.5953 99.5168 37.6436 95.3431 30.1257 87.8089C22.6078 80.2747 18.4432 70.3013 18.4432 59.7318V58.2683C18.4432 47.6987 22.6078 37.7253 30.1257 30.1911C37.6436 22.6569 47.5953 18.4832 58.142 18.4832H358.804C369.351 18.4832 379.302 22.6569 386.82 30.1911C394.338 37.7253 398.503 47.6987 398.503 58.2683V59.7318C398.503 70.3013 394.338 80.2747 386.82 87.8089C379.302 95.3431 369.351 99.5168 358.804 99.5168H58.142Z" fill="#6C6C6C"/>
<path d="M58.142 99.1916C47.7035 99.1916 37.8059 95.0721 30.342 87.5921C22.8782 80.1121 18.7677 70.2471 18.7677 59.7318V58.2683C18.7677 47.7529 22.8782 37.8879 30.342 30.4079C37.8059 22.9279 47.6494 18.8085 58.142 18.8085H358.804C369.242 18.8085 379.14 22.9279 386.604 30.4079C394.068 37.8879 398.178 47.7529 398.178 58.2683V59.7318C398.178 70.2471 394.068 80.1121 386.604 87.5921C379.14 95.0721 369.296 99.1916 358.804 99.1916H58.142Z" fill="#626262"/>
<path d="M58.1422 98.8663C47.7577 98.8663 37.9683 94.8011 30.5585 87.3753C23.1488 79.9495 19.0924 70.1387 19.0924 59.7317V58.2683C19.0924 47.8613 23.1488 38.0505 30.5585 30.6247C37.9683 23.1989 47.7577 19.1337 58.1422 19.1337H358.804C369.188 19.1337 378.978 23.1989 386.388 30.6247C393.797 38.0505 397.854 47.8613 397.854 58.2683V59.7317C397.854 70.1387 393.797 79.9495 386.388 87.3753C378.978 94.8011 369.188 98.8663 358.804 98.8663H58.1422Z" fill="#585858"/>
<path d="M58.1421 98.5411C47.8658 98.5411 38.1304 94.4759 30.8288 87.1585C23.4732 79.7869 19.4709 70.0845 19.4709 59.7859V58.3225C19.4709 48.0239 23.5273 38.2673 30.8288 30.9499C38.1845 23.5783 47.8658 19.5673 58.1421 19.5673H358.804C369.08 19.5673 378.816 23.6325 386.117 30.9499C393.473 38.3215 397.475 48.0239 397.475 58.3225V59.7859C397.475 70.0845 393.419 79.8411 386.117 87.1585C378.762 94.5301 369.08 98.5411 358.804 98.5411H58.1421Z" fill="#4E4E4E"/>
<path d="M58.142 98.2159C47.9199 98.2159 38.3467 94.2049 31.0452 86.9417C23.7977 79.6785 19.7953 70.0303 19.7953 59.7859V58.3225C19.7953 48.0781 23.7977 38.4842 31.0452 31.1667C38.2926 23.9035 47.9199 19.8925 58.142 19.8925H358.804C369.026 19.8925 378.599 23.9035 385.901 31.1667C393.148 38.43 397.151 48.0781 397.151 58.3225V59.7859C397.151 70.0303 393.148 79.6243 385.901 86.9417C378.653 94.2049 369.026 98.2159 358.858 98.2159H58.142Z" fill="#454545"/>
<path d="M58.1421 97.8365C48.0281 97.8365 38.509 93.8797 31.2616 86.6165C24.0682 79.4075 20.0659 69.8135 20.0659 59.6776V58.2141C20.0659 48.0781 24.0141 38.5384 31.2616 31.2752C38.509 24.1204 48.0822 20.1635 58.1421 20.1635H358.804C368.918 20.1635 378.437 24.1204 385.63 31.3836C392.824 38.5926 396.826 48.1865 396.826 58.3225V59.786C396.826 69.9219 392.878 79.4617 385.63 86.7249C378.437 93.9339 368.864 97.9449 358.804 97.9449H58.1421V97.8365Z" fill="#3B3B3B"/>
<path d="M58.1422 97.5112C48.1363 97.5112 38.6714 93.5544 31.5321 86.3996C24.3928 79.2448 20.4445 69.7593 20.4445 59.7317V58.2682C20.4445 48.2407 24.3928 38.7551 31.5321 31.6003C38.6714 24.4455 48.1363 20.4887 58.1422 20.4887H358.804C368.81 20.4887 378.275 24.4455 385.414 31.6003C392.553 38.7551 396.502 48.2407 396.502 58.2682V59.7317C396.502 69.7593 392.553 79.2448 385.414 86.3996C378.275 93.5544 368.81 97.5112 358.804 97.5112H58.1422Z" fill="#313131"/>
<path d="M58.1422 97.1861C48.1904 97.1861 38.8336 93.2835 31.7484 86.1829C24.6632 79.0823 20.769 69.7052 20.769 59.7318V58.2683C20.769 48.295 24.6632 38.9178 31.7484 31.8172C38.8336 24.7166 48.1904 20.814 58.1422 20.814H358.804C368.756 20.814 378.113 24.7166 385.198 31.8172C392.283 38.9178 396.177 48.295 396.177 58.2683V59.7318C396.177 69.7052 392.283 79.0823 385.198 86.1829C378.113 93.2835 368.756 97.1861 358.804 97.1861H58.1422Z" fill="#272727"/>
<path d="M58.1421 96.8608C48.2985 96.8608 38.9958 92.9582 32.0187 85.966C24.9876 78.9196 21.1475 69.6509 21.1475 59.7859V58.3225C21.1475 48.4575 24.9876 39.1346 32.0187 32.1424C39.0499 25.096 48.2985 21.2476 58.1421 21.2476H358.804C368.648 21.2476 377.95 25.096 384.927 32.1424C391.958 39.1888 395.798 48.4575 395.798 58.3225V59.7859C395.798 69.6509 391.958 78.9738 384.927 85.966C377.896 93.0124 368.648 96.8608 358.804 96.8608H58.1421Z" fill="#1D1D1D"/>
<path d="M58.142 96.5357C48.4066 96.5357 39.158 92.6872 32.235 85.7493C25.258 78.7571 21.472 69.5426 21.472 59.786V58.3225C21.472 48.566 25.3121 39.3515 32.235 32.3593C39.2121 25.3671 48.4066 21.5729 58.142 21.5729H358.804C368.539 21.5729 377.734 25.4213 384.711 32.3593C391.688 39.3515 395.474 48.566 395.474 58.3225V59.786C395.474 69.5426 391.634 78.8113 384.711 85.7493C377.734 92.7415 368.539 96.5357 358.804 96.5357H58.142Z" fill="#141414"/>
<path d="M58.1421 96.2104C48.4608 96.2104 39.3744 92.4162 32.4515 85.4782C25.5826 78.5944 21.7425 69.4341 21.7425 59.7318V58.2683C21.7425 48.5659 25.5285 39.4598 32.4515 32.5218C39.3203 25.6381 48.4608 21.7896 58.1421 21.7896H358.804C368.485 21.7896 377.572 25.5839 384.495 32.5218C391.364 39.4598 395.204 48.5659 395.204 58.2683V59.7318C395.204 69.4341 391.418 78.5402 384.495 85.4782C377.626 92.362 368.485 96.2104 358.804 96.2104H58.1421Z" fill="#0A0A0A"/>
<path d="M58.1422 95.8852C48.569 95.8852 39.5367 92.091 32.7219 85.2614C25.9071 78.3777 22.1212 69.3257 22.1212 59.7318V58.2683C22.1212 48.6744 25.9071 39.6225 32.7219 32.7929C39.5367 25.9633 48.569 22.1691 58.1422 22.1691H358.804C368.377 22.1691 377.409 25.9633 384.224 32.7929C391.039 39.6225 394.825 48.6744 394.825 58.2683V59.7318C394.825 69.3257 391.039 78.3777 384.224 85.2072C377.409 92.0368 368.377 95.831 358.804 95.831H58.1422V95.8852Z" fill="black"/>
</mask>
<g mask="url(#mask0)">
<path opacity="0.5" d="M358.858 0H58.142C50.2996 0 42.7276 1.57189 35.5342 4.60726C28.6113 7.53422 22.4455 11.7621 17.091 17.074C11.7366 22.4401 7.5179 28.6734 4.59728 35.6114C1.56848 42.8204 0 50.463 0 58.2683V59.7317C0 67.5912 1.56848 75.1796 4.59728 82.3886C7.5179 89.3266 11.7366 95.5599 17.091 100.872C22.4455 106.238 28.6654 110.412 35.5883 113.393C42.7817 116.428 50.3537 118 58.1961 118H358.858C366.7 118 374.272 116.428 381.466 113.393C388.389 110.466 394.609 106.238 399.909 100.872C405.263 95.5057 409.428 89.2724 412.403 82.3886C415.432 75.1796 417 67.5912 417 59.7317V58.2683C417 50.4088 415.432 42.8204 412.403 35.6114C409.482 28.6734 405.263 22.4401 399.909 17.074C394.554 11.7079 388.335 7.53422 381.466 4.55305C374.272 1.51768 366.646 0 358.858 0Z" fill="url(#paint1_linear)"/>
<path d="M360.21 16.3691C371.352 16.3691 381.79 20.7596 389.741 28.6732C397.638 36.5869 402.018 47.1022 402.018 58.2681V59.7858C402.018 70.8974 397.638 81.4128 389.741 89.3806C381.845 97.2943 371.352 101.685 360.21 101.685H56.8441C45.7025 101.685 35.264 97.2943 27.3134 89.3806C19.4169 81.467 15.036 70.9516 15.036 59.7858V58.2681C15.036 47.1022 19.4169 36.6411 27.3134 28.6732C35.2099 20.7596 45.7025 16.3691 56.8441 16.3691H360.21ZM358.858 11.3282H58.1422C45.7025 11.3282 33.9118 16.2065 25.0418 25.0958C16.2258 33.9851 11.304 45.8014 11.304 58.2681V59.7315C11.304 72.1982 16.1718 84.0145 25.0418 92.9038C33.9118 101.793 45.6484 106.671 58.1422 106.671H358.804C371.244 106.671 383.034 101.793 391.904 92.9038C400.774 84.0145 405.642 72.2524 405.642 59.7315V58.2681C405.642 45.8014 400.774 33.9851 391.904 25.0958C383.089 16.2065 371.298 11.3282 358.858 11.3282Z" fill="url(#paint2_linear)"/>
</g>
<defs>
<linearGradient id="paint0_linear" x1="208.509" y1="130.592" x2="208.509" y2="-16.3541" gradientUnits="userSpaceOnUse">
<stop stop-color="#78FA78"/>
<stop offset="1" stop-color="#001C78"/>
</linearGradient>
<linearGradient id="paint1_linear" x1="0.00811284" y1="59.0103" x2="417.009" y2="59.0103" gradientUnits="userSpaceOnUse">
<stop stop-color="#64D2DC"/>
<stop offset="1" stop-color="#8CFA50"/>
</linearGradient>
<linearGradient id="paint2_linear" x1="11.3138" y1="59.0101" x2="405.701" y2="59.0101" gradientUnits="userSpaceOnUse">
<stop stop-color="#64D2DC"/>
<stop offset="1" stop-color="#8CFA50"/>
</linearGradient>
</defs>
</svg>
