<svg width="417" height="118" viewBox="0 0 417 118" fill="none" xmlns="http://www.w3.org/2000/svg">
<path opacity="0.35" d="M358.858 0H58.142C50.2996 0 42.7276 1.57189 35.5342 4.60726C28.6113 7.53422 22.3914 11.7079 17.091 17.074C11.7907 22.4401 7.5179 28.6734 4.59728 35.6114C1.56848 42.8204 0 50.4088 0 58.2683V59.7317C0 67.5912 1.56848 75.1796 4.59728 82.3886C7.5179 89.3266 11.7366 95.5599 17.091 100.872C22.4455 106.238 28.6654 110.412 35.5342 113.393C42.7276 116.428 50.2996 118 58.142 118H358.804C366.646 118 374.218 116.428 381.412 113.393C388.335 110.466 394.554 106.238 399.909 100.872C405.263 95.5057 409.428 89.2724 412.403 82.3886C415.432 75.1796 417 67.5912 417 59.7317V58.2683C417 50.4088 415.432 42.8204 412.403 35.6114C409.482 28.6734 405.263 22.4401 399.909 17.1282C394.609 11.7079 388.389 7.53422 381.466 4.60726C374.272 1.51769 366.646 0 358.858 0Z" fill="url(#paint0_linear)"/>
<mask id="mask0" mask-type="alpha" maskUnits="userSpaceOnUse" x="4" y="4" width="409" height="110">
<path d="M58.1422 113.176C43.9718 113.176 30.5585 107.593 20.4445 97.457C10.3305 87.3211 4.7597 73.9329 4.7597 59.6775V58.214C4.7597 44.0128 10.3305 30.5705 20.4445 20.4345C30.5585 10.2985 43.9177 4.71564 58.1422 4.71564H358.804C372.974 4.71564 386.388 10.2985 396.502 20.4345C406.616 30.5705 412.187 43.9586 412.187 58.214V59.6775C412.187 73.8787 406.616 87.3211 396.502 97.457C386.388 107.593 373.029 113.176 358.804 113.176H58.1422Z" fill="black"/>
<path d="M58.1413 112.851C44.025 112.851 30.7199 107.322 20.7141 97.2402C10.6542 87.2127 5.13745 73.8787 5.13745 59.7317V58.2682C5.13745 44.1213 10.6542 30.7873 20.7141 20.7597C30.774 10.678 44.025 5.14928 58.1413 5.14928H358.803C372.92 5.14928 386.225 10.678 396.23 20.7597C406.29 30.8415 411.807 44.1213 411.807 58.2682V59.7317C411.807 73.8787 406.29 87.2127 396.23 97.2402C386.225 107.322 372.92 112.851 358.803 112.851H58.1413Z" fill="#0A0A0A"/>
<path d="M58.1405 112.525C44.1323 112.525 30.8814 106.997 20.9296 97.0234C10.9779 87.0501 5.46112 73.7703 5.46112 59.7317V58.2683C5.46112 44.2297 10.9779 30.9499 20.9296 20.9766C30.8814 11.0032 44.1323 5.4745 58.1405 5.4745H358.802C372.811 5.4745 386.062 11.0032 396.013 20.9766C405.965 30.9499 411.482 44.2297 411.482 58.2683V59.7317C411.482 73.7703 406.019 87.0501 396.013 97.0234C386.062 106.997 372.811 112.525 358.802 112.525H58.1405Z" fill="#141414"/>
<path d="M58.1397 112.2C44.1856 112.2 31.0969 106.726 21.1452 96.8066C11.2475 86.8874 5.78485 73.7161 5.78485 59.7317V58.2682C5.78485 44.2839 11.2475 31.1667 21.1452 21.1934C31.0428 11.2742 44.1856 5.79971 58.1397 5.79971H358.802C372.756 5.79971 385.844 11.2742 395.742 21.1934C405.64 31.1125 411.102 44.2839 411.102 58.2682V59.7317C411.102 73.7161 405.64 86.8332 395.742 96.8066C385.844 106.726 372.702 112.2 358.802 112.2H58.1397Z" fill="#1D1D1D"/>
<path d="M58.1388 111.875C44.2929 111.875 31.2583 106.455 21.4147 96.5898C11.5711 86.7248 6.16254 73.6619 6.16254 59.7859V58.3225C6.16254 44.4465 11.5711 31.3836 21.4147 21.5186C31.2583 11.5452 44.2929 6.12494 58.1388 6.12494H358.801C372.647 6.12494 385.681 11.5452 395.525 21.4102C405.368 31.2751 410.777 44.3381 410.777 58.214V59.6775C410.777 73.5535 405.368 86.6164 395.525 96.4814C385.681 106.346 372.647 111.767 358.801 111.767H58.1388V111.875Z" fill="#272727"/>
<path d="M58.1381 111.55C44.4003 111.55 31.4198 106.13 21.6303 96.3188C11.8408 86.508 6.43225 73.4993 6.43225 59.7317V58.2683C6.43225 44.5007 11.8408 31.492 21.6303 21.6812C31.4198 11.8705 44.4003 6.45016 58.1381 6.45016H358.8C372.538 6.45016 385.518 11.8705 395.308 21.6812C405.097 31.492 410.506 44.5007 410.506 58.2683V59.7317C410.506 73.4993 405.097 86.508 395.308 96.3188C385.518 106.13 372.538 111.55 358.8 111.55H58.1381Z" fill="#313131"/>
<path d="M58.1372 111.17C44.4535 111.17 31.5811 105.804 21.8998 96.0477C12.1644 86.2912 6.80994 73.3909 6.80994 59.6775V58.214C6.80994 44.5006 12.1644 31.6003 21.8998 21.8438C31.6352 12.0872 44.5076 6.72113 58.1372 6.72113H358.799C372.483 6.72113 385.355 12.0872 395.09 21.8438C404.826 31.6003 410.18 44.5006 410.18 58.214V59.6775C410.18 73.3909 404.826 86.2912 395.09 96.0477C385.355 105.804 372.483 111.17 358.799 111.17H58.1372Z" fill="#3B3B3B"/>
<path d="M58.1419 110.845C44.5665 110.845 31.7482 105.533 22.1209 95.8309C12.4396 86.1286 7.13922 73.3367 7.13922 59.7317V58.2682C7.13922 44.6633 12.4396 31.8171 22.1209 22.169C31.8023 12.4667 44.5665 7.15475 58.1419 7.15475H358.804C372.379 7.15475 385.198 12.4667 394.825 22.169C404.506 31.8713 409.807 44.6633 409.807 58.2682V59.7317C409.807 73.3367 404.506 86.1828 394.825 95.8309C385.143 105.533 372.379 110.845 358.804 110.845H58.1419Z" fill="#454545"/>
<path d="M58.1421 110.52C44.6748 110.52 31.9647 105.208 22.3375 95.6141C12.7643 86.0202 7.46393 73.2825 7.46393 59.7317V58.2682C7.46393 44.7717 12.7643 32.034 22.3375 22.3858C31.9106 12.7919 44.6207 7.47998 58.1421 7.47998H358.804C372.271 7.47998 384.981 12.7919 394.609 22.3858C404.182 31.9798 409.482 44.7175 409.482 58.2682V59.7317C409.482 73.2283 404.182 85.966 394.609 95.6141C385.036 105.208 372.325 110.52 358.804 110.52H58.1421Z" fill="#4E4E4E"/>
<path d="M58.1423 110.195C44.729 110.195 32.1271 104.937 22.608 95.3974C13.089 85.8576 7.84265 73.1741 7.84265 59.7318V58.2683C7.84265 44.8259 13.089 32.1966 22.608 22.6027C32.1271 13.0088 44.7831 7.80527 58.1423 7.80527H358.804C372.217 7.80527 384.819 13.063 394.392 22.6027C403.912 32.1424 409.158 44.8259 409.158 58.2683V59.7318C409.158 73.1741 403.912 85.8034 394.392 95.3974C384.873 104.937 372.217 110.195 358.804 110.195H58.1423Z" fill="#585858"/>
<path d="M58.1422 109.87C44.8371 109.87 32.2892 104.666 22.8243 95.1264C13.3593 85.6408 8.11298 73.0657 8.11298 59.7318V58.2683C8.11298 44.9344 13.3052 32.3593 22.8243 22.8737C32.2892 13.3882 44.8371 8.13049 58.1422 8.13049H358.804C372.109 8.13049 384.657 13.334 394.122 22.8737C403.587 32.3593 408.779 44.9344 408.779 58.2683V59.7318C408.779 73.0657 403.587 85.6408 394.122 95.1264C384.657 104.612 372.109 109.87 358.804 109.87H58.1422Z" fill="#626262"/>
<path d="M58.142 109.544C44.9451 109.544 32.4513 104.341 23.0404 94.9095C13.6295 85.4782 8.43732 73.0115 8.43732 59.7318V58.2683C8.43732 45.0427 13.6295 32.5219 23.0404 23.0905C32.4513 13.6592 44.891 8.4557 58.142 8.4557H358.804C372.001 8.4557 384.495 13.6592 393.905 23.0905C403.316 32.5219 408.509 44.9885 408.509 58.2683V59.7318C408.509 72.9573 403.316 85.4782 393.905 94.9095C384.495 104.341 372.055 109.544 358.804 109.544H58.142Z" fill="#6C6C6C"/>
<path d="M58.1421 109.165C44.9993 109.165 32.6137 104.016 23.311 94.6385C13.9542 85.2613 8.81604 72.8488 8.81604 59.7317V58.2682C8.81604 45.0969 13.9542 32.6844 23.311 23.3073C32.6678 13.9301 45.0534 8.78085 58.1421 8.78085H358.804C371.947 8.78085 384.332 13.9301 393.635 23.3073C402.992 32.6844 408.13 45.0969 408.13 58.2682V59.7317C408.13 72.9031 402.992 85.3155 393.635 94.6385C384.278 104.016 371.893 109.165 358.804 109.165H58.1421Z" fill="#767676"/>
<path d="M58.1419 108.84C45.1073 108.84 32.8299 103.69 23.5272 94.4217C14.2244 85.0988 9.14038 72.7947 9.14038 59.7317V58.2683C9.14038 45.2053 14.2785 32.9012 23.5272 23.5783C32.8299 14.2554 45.1073 9.16031 58.1419 9.16031H358.804C371.838 9.16031 384.116 14.3096 393.419 23.5783C402.721 32.9012 407.805 45.2053 407.805 58.2683V59.7317C407.805 72.7947 402.721 85.0988 393.419 94.4217C384.116 103.745 371.838 108.84 358.804 108.84H58.1419Z" fill="#7F7F7F"/>
<path d="M58.1421 108.514C45.2157 108.514 32.9923 103.419 23.7437 94.2049C14.5491 84.9361 9.46509 72.7405 9.46509 59.7317V58.2682C9.46509 45.2595 14.5491 33.0638 23.7437 23.7951C32.9382 14.5806 45.1616 9.48552 58.1421 9.48552H358.804C371.73 9.48552 383.954 14.5806 393.202 23.7951C402.451 33.0638 407.481 45.2595 407.481 58.2682V59.7317C407.481 72.6863 402.397 84.9361 393.202 94.2049C384.008 103.419 371.785 108.514 358.804 108.514H58.1421Z" fill="#898989"/>
<path d="M58.142 108.189C45.2696 108.189 33.1544 103.148 24.0139 93.9338C14.8735 84.7735 9.78943 72.632 9.78943 59.7317V58.2682C9.78943 45.3679 14.8735 33.2264 24.0139 24.0119C33.1544 14.8516 45.3237 9.7565 58.142 9.7565H358.804C371.676 9.7565 383.791 14.7974 392.932 24.0119C402.072 33.1722 407.102 45.3679 407.102 58.214V59.6775C407.102 72.5778 402.072 84.7193 392.932 93.8796C383.791 103.04 371.622 108.135 358.804 108.135H58.142V108.189Z" fill="#939393"/>
<path d="M58.1422 107.864C45.3779 107.864 33.3169 102.823 24.2305 93.717C15.1441 84.6109 10.1141 72.5237 10.1141 59.7318V58.2683C10.1141 45.4763 15.1441 33.3891 24.2305 24.283C33.3169 15.1769 45.3779 10.136 58.1422 10.136H358.804C371.568 10.136 383.629 15.1769 392.716 24.283C401.802 33.3891 406.832 45.4763 406.832 58.2683V59.7318C406.832 72.5237 401.802 84.6109 392.716 93.717C383.629 102.823 371.568 107.864 358.804 107.864H58.1422Z" fill="#9D9D9D"/>
<path d="M58.142 107.539C45.4859 107.539 33.4789 102.552 24.4466 93.5002C15.4144 84.4483 10.4385 72.4695 10.4385 59.7317V58.2683C10.4385 45.5305 15.4144 33.5517 24.4466 24.4998C33.533 15.4479 45.4859 10.4612 58.142 10.4612H358.804C371.514 10.4612 383.467 15.4479 392.499 24.4998C401.531 33.5517 406.507 45.5305 406.507 58.2683V59.7317C406.507 72.4695 401.531 84.4483 392.499 93.5002C383.467 102.552 371.514 107.539 358.804 107.539H58.142Z" fill="#A7A7A7"/>
<path d="M58.1421 107.214C45.5402 107.214 33.6954 102.281 24.7172 93.2834C15.739 84.2857 10.8172 72.4153 10.8172 59.7859V58.3225C10.8172 45.6932 15.739 33.7685 24.7172 24.825C33.6954 15.8273 45.5402 10.8948 58.1421 10.8948H358.804C371.406 10.8948 383.251 15.8273 392.229 24.825C401.207 33.8227 406.129 45.6932 406.129 58.3225V59.7859C406.129 72.4153 401.207 84.2857 392.229 93.2834C383.251 102.281 371.406 107.214 358.804 107.214H58.1421Z" fill="#B1B1B1"/>
<path d="M58.1419 106.834C45.6482 106.834 33.8575 101.902 24.9334 93.0124C16.0092 84.0689 11.1415 72.2526 11.1415 59.7317V58.2682C11.1415 45.7473 16.0633 33.9311 24.9334 24.9876C33.8575 16.0441 45.6482 11.1658 58.1419 11.1658H358.804C371.298 11.1658 383.088 16.0983 392.012 24.9876C400.936 33.9311 405.804 45.7473 405.804 58.2682V59.7317C405.804 72.2526 400.882 84.0689 392.012 93.0124C383.088 101.956 371.298 106.834 358.804 106.834H58.1419Z" fill="#BABABA"/>
<path d="M58.1419 106.509C45.7022 106.509 34.0197 101.631 25.1497 92.7413C16.2796 83.8521 11.4119 72.1442 11.4119 59.6775V58.214C11.4119 45.7473 16.2796 34.0395 25.1497 25.1502C33.9656 16.2609 45.7022 11.3826 58.1419 11.3826H358.804C371.243 11.3826 382.926 16.2609 391.796 25.1502C400.666 33.9853 405.534 45.7473 405.534 58.214V59.6775C405.534 72.1442 400.666 83.8521 391.796 92.7413C382.98 101.576 371.243 106.509 358.804 106.509H58.1419Z" fill="#C4C4C4"/>
<path d="M58.1419 106.184C45.8104 106.184 34.182 101.36 25.4202 92.5246C16.6583 83.7437 11.7906 72.09 11.7906 59.7317V58.2682C11.7906 45.9099 16.6042 34.2563 25.4202 25.4754C34.182 16.6945 45.8104 11.8162 58.1419 11.8162H358.804C371.135 11.8162 382.764 16.6403 391.526 25.4754C400.287 34.2563 405.155 45.9099 405.155 58.2682V59.7317C405.155 72.09 400.342 83.7437 391.526 92.5246C382.764 101.305 371.135 106.184 358.804 106.184H58.1419Z" fill="#CECECE"/>
<path d="M58.1418 105.858C45.9185 105.858 34.3442 101.034 25.6364 92.3077C16.9286 83.581 12.115 71.9816 12.115 59.7317V58.2682C12.115 46.0183 16.9286 34.4189 25.6364 25.6922C34.3442 16.9655 45.9185 12.1414 58.1418 12.1414H358.804C371.027 12.1414 382.601 16.9655 391.309 25.6922C400.017 34.4189 404.831 46.0183 404.831 58.2682V59.7317C404.831 71.9816 400.017 83.581 391.309 92.3077C382.601 101.034 371.027 105.858 358.804 105.858H58.1418Z" fill="#D8D8D8"/>
<path d="M58.1419 105.533C45.9726 105.533 34.5065 100.763 25.9069 92.0909C17.2532 83.4184 12.4937 71.9274 12.4937 59.7317V58.2682C12.4937 46.0726 17.2532 34.5815 25.9069 25.909C34.5606 17.2365 46.0267 12.4667 58.1419 12.4667H358.804C370.973 12.4667 382.439 17.2365 391.039 25.909C399.692 34.5815 404.452 46.0726 404.452 58.2682V59.7317C404.452 71.9274 399.692 83.4184 391.039 92.0909C382.385 100.763 370.919 105.533 358.804 105.533H58.1419Z" fill="#E2E2E2"/>
<path d="M58.1421 105.208C46.081 105.208 34.723 100.492 26.1234 91.8741C17.5238 83.2558 12.8184 71.8732 12.8184 59.7859V58.3224C12.8184 46.2352 17.5779 34.8525 26.1234 26.2342C34.723 17.616 46.081 12.9003 58.1421 12.9003H358.804C370.865 12.9003 382.223 17.616 390.823 26.2342C399.422 34.8525 404.128 46.2352 404.128 58.3224V59.7859C404.128 71.8732 399.422 83.2558 390.823 91.8741C382.223 100.492 370.865 105.208 358.804 105.208H58.1421Z" fill="#EBEBEB"/>
<path d="M58.1421 104.829C46.1891 104.829 34.8852 100.113 26.3397 91.5489C17.7942 82.9848 13.0887 71.7106 13.0887 59.6775V58.214C13.0887 46.2351 17.7942 34.9067 26.3397 26.3426C34.8852 17.7786 46.135 13.1171 58.1421 13.1171H358.804C370.757 13.1171 382.061 17.8328 390.606 26.3426C399.152 34.9067 403.857 46.1809 403.857 58.214V59.6775C403.857 71.6564 399.152 82.9848 390.606 91.5489C382.061 100.113 370.811 104.829 358.804 104.829H58.1421Z" fill="#F5F5F5"/>
<path d="M58.1419 104.503C46.243 104.503 35.0473 99.8419 26.5559 91.3321C18.0644 82.8222 13.4131 71.6022 13.4131 59.7317V58.2682C13.4131 46.3436 18.0644 35.1235 26.5559 26.6137C35.0473 18.1038 46.243 13.4423 58.1419 13.4423H358.804C370.703 13.4423 381.898 18.1038 390.336 26.6137C398.827 35.1235 403.478 46.3436 403.478 58.2682V59.7317C403.478 71.6564 398.827 82.8764 390.336 91.3321C381.844 99.8419 370.648 104.503 358.804 104.503H58.1419Z" fill="white"/>
<path d="M58.1419 104.178C46.3513 104.178 35.2096 99.5167 26.8264 91.1152C18.4431 82.7138 13.7917 71.5479 13.7917 59.7317V58.2682C13.7917 46.4519 18.4431 35.2861 26.8264 26.8846C35.2096 18.4832 46.3513 13.8217 58.1419 13.8217H358.804C370.594 13.8217 381.736 18.4832 390.119 26.8846C398.503 35.2861 403.154 46.4519 403.154 58.2682V59.7317C403.154 71.5479 398.557 82.7138 390.119 91.1152C381.736 99.5167 370.594 104.178 358.804 104.178H58.1419Z" fill="#F5F5F5"/>
<path d="M58.1418 103.853C46.4593 103.853 35.3718 99.2458 27.0426 90.8985C18.7134 82.5512 14.1161 71.4938 14.1161 59.7318V58.2683C14.1161 46.5604 18.7134 35.4488 27.0426 27.1015C35.3718 18.7543 46.4053 14.147 58.1418 14.147H358.804C370.486 14.147 381.574 18.7543 389.903 27.1015C398.232 35.4488 402.829 46.5062 402.829 58.2683V59.7318C402.829 71.4396 398.232 82.5512 389.903 90.8985C381.574 99.2458 370.54 103.853 358.804 103.853H58.1418Z" fill="#EBEBEB"/>
<path d="M58.1419 103.528C46.5135 103.528 35.5882 98.9747 27.3131 90.6817C19.038 82.3886 14.4948 71.3854 14.4948 59.7317V58.2682C14.4948 46.6146 19.038 35.6656 27.3131 27.3725C35.5882 19.0795 46.5676 14.5264 58.1419 14.5264H358.804C370.432 14.5264 381.357 19.0795 389.633 27.3725C397.908 35.6656 402.451 46.6688 402.451 58.2682V59.7317C402.451 71.3854 397.908 82.3344 389.633 90.6817C381.357 98.9747 370.378 103.528 358.804 103.528H58.1419Z" fill="#E2E2E2"/>
<path d="M58.1418 103.203C46.6216 103.203 35.7504 98.6495 27.5294 90.4107C19.3084 82.1718 14.7652 71.277 14.7652 59.7318V58.2683C14.7652 46.723 19.3084 35.8282 27.5294 27.5894C35.7504 19.3505 46.6216 14.7975 58.1418 14.7975H358.804C370.324 14.7975 381.195 19.3505 389.416 27.5352C397.637 35.774 402.126 46.6688 402.126 58.2141V59.6776C402.126 71.2228 397.583 82.1176 389.416 90.3565C381.195 98.5953 370.324 103.148 358.804 103.148H58.1418V103.203Z" fill="#D8D8D8"/>
<path d="M58.142 102.877C46.73 102.877 35.9129 98.3785 27.7459 90.1939C19.579 82.0092 15.0899 71.2228 15.0899 59.7318V58.2683C15.0899 46.7773 19.579 35.9908 27.7459 27.8062C35.9129 19.6215 46.6759 15.1227 58.142 15.1227H358.804C370.27 15.1227 381.033 19.6215 389.2 27.8062C397.367 35.9908 401.856 46.7773 401.856 58.2683V59.7318C401.856 71.2228 397.367 82.0092 389.2 90.1939C381.033 98.3785 370.27 102.877 358.804 102.877H58.142Z" fill="#CECECE"/>
<path d="M58.1418 102.498C46.7838 102.498 36.0749 98.0534 28.0161 89.9229C19.9033 81.7924 15.4683 71.0602 15.4683 59.7318V58.2683C15.4683 46.8857 19.9033 36.1535 28.0161 28.0772C36.129 19.9468 46.8379 15.5021 58.1418 15.5021H358.804C370.162 15.5021 380.871 19.9468 388.929 28.0772C397.042 36.2077 401.477 46.9399 401.477 58.2683V59.7318C401.477 71.1144 397.042 81.8466 388.929 89.9229C380.816 98.0534 370.108 102.498 358.804 102.498H58.1418Z" fill="#C4C4C4"/>
<path d="M58.1419 102.173C46.8921 102.173 36.2373 97.7281 28.2326 89.706C20.2279 81.684 15.7929 71.006 15.7929 59.7317V58.2682C15.7929 46.994 20.2279 36.316 28.2326 28.294C36.2373 20.2719 46.8921 15.8273 58.1419 15.8273H358.804C370.054 15.8273 380.708 20.2719 388.713 28.294C396.718 36.316 401.153 46.994 401.153 58.2682V59.7317C401.153 71.006 396.718 81.684 388.713 89.706C380.708 97.7281 370.054 102.173 358.804 102.173H58.1419Z" fill="#BABABA"/>
<path d="M58.1418 101.847C46.9461 101.847 36.4535 97.457 28.4488 89.4892C20.4982 81.5214 16.1173 70.9518 16.1173 59.7317V58.2683C16.1173 47.0482 20.4982 36.4786 28.4488 28.5108C36.3994 20.5429 46.9461 16.1525 58.1418 16.1525H358.804C369.999 16.1525 380.492 20.5429 388.497 28.5108C396.447 36.4786 400.828 47.0482 400.828 58.2683V59.7317C400.828 70.9518 396.447 81.4671 388.497 89.4892C380.546 97.457 369.999 101.847 358.804 101.847H58.1418Z" fill="#B1B1B1"/>
<path d="M58.1419 101.522C47.0543 101.522 36.6158 97.186 28.7193 89.2182C20.8228 81.3045 16.496 70.8433 16.496 59.7317V58.2682C16.496 47.1566 20.8228 36.6954 28.7193 28.7818C36.6158 20.8681 47.0543 16.4777 58.1419 16.4777H358.804C369.891 16.4777 380.33 20.8139 388.226 28.7818C396.123 36.6954 400.45 47.1566 400.45 58.2682V59.7317C400.45 70.8433 396.123 81.3045 388.226 89.2182C380.33 97.1318 369.891 101.522 358.804 101.522H58.1419Z" fill="#A7A7A7"/>
<path d="M58.1418 101.197C47.1625 101.197 36.778 96.8608 28.9356 89.0014C21.0932 81.1419 16.7664 70.7349 16.7664 59.7317V58.2682C16.7664 47.265 21.0932 36.858 28.9356 28.9986C36.778 21.1392 47.1625 16.8029 58.1418 16.8029H358.804C369.783 16.8029 380.168 21.1392 388.01 28.9986C395.852 36.858 400.179 47.265 400.179 58.2682V59.7317C400.179 70.7349 395.852 81.1419 388.01 89.0014C380.168 96.8608 369.783 101.197 358.804 101.197H58.1418Z" fill="#9D9D9D"/>
<path d="M58.1423 100.872C47.217 100.872 36.9408 96.5898 29.1525 88.7845C21.3641 80.9793 17.0914 70.6807 17.0914 59.7317V58.2682C17.0914 47.3192 21.3641 37.0206 29.1525 29.2154C36.9408 21.4102 47.217 17.1281 58.1423 17.1281H358.804C369.729 17.1281 380.006 21.4102 387.794 29.2154C395.582 37.0206 399.855 47.3192 399.855 58.2682V59.7317C399.855 70.6807 395.582 80.9793 387.794 88.7845C380.006 96.5898 369.729 100.872 358.804 100.872H58.1423Z" fill="#939393"/>
<path d="M58.1418 100.492C47.3247 100.492 37.1025 96.2104 29.4223 88.5136C21.7422 80.8167 17.4694 70.5724 17.4694 59.7318V58.2683C17.4694 47.4277 21.7422 37.1833 29.4223 29.4865C37.1566 21.7354 47.3247 17.5076 58.1418 17.5076H358.804C369.621 17.5076 379.843 21.7896 387.523 29.4865C395.257 37.2375 399.476 47.4277 399.476 58.2683V59.7318C399.476 70.5724 395.203 80.8167 387.523 88.5136C379.789 96.2646 369.621 100.492 358.804 100.492H58.1418Z" fill="#898989"/>
<path d="M58.142 100.167C47.433 100.167 37.319 95.9393 29.6389 88.2967C22.0128 80.654 17.7941 70.4639 17.7941 59.7317V58.2682C17.7941 47.536 22.0128 37.3458 29.6389 29.7032C37.2649 22.0606 47.433 17.8327 58.142 17.8327H358.804C369.513 17.8327 379.681 22.0606 387.307 29.7032C394.987 37.3458 399.206 47.4818 399.206 58.2682V59.7317C399.206 70.4639 394.987 80.654 387.361 88.2967C379.735 95.9393 369.567 100.167 358.858 100.167H58.142Z" fill="#808080"/>
<path d="M58.1422 99.8419C47.4873 99.8419 37.4815 95.6683 29.8554 88.0799C22.2834 80.4915 18.0648 70.4097 18.0648 59.7317V58.2682C18.0648 47.5902 22.2293 37.5626 29.8554 29.92C37.4274 22.3316 47.4873 18.158 58.1422 18.158H358.804C369.459 18.158 379.465 22.3316 387.091 29.92C394.663 37.5084 398.827 47.5902 398.827 58.2682V59.7317C398.827 70.4097 394.663 80.4373 387.091 88.0799C379.519 95.6683 369.459 99.8419 358.804 99.8419H58.1422Z" fill="#767676"/>
<path d="M58.1423 99.5167C47.5956 99.5167 37.6439 95.343 30.126 87.8088C22.6081 80.2746 18.4435 70.3013 18.4435 59.7317V58.2682C18.4435 47.6986 22.6081 37.7252 30.126 30.191C37.6439 22.6568 47.5956 18.4832 58.1423 18.4832H358.804C369.351 18.4832 379.303 22.6568 386.821 30.191C394.338 37.7252 398.503 47.6986 398.503 58.2682V59.7317C398.503 70.3013 394.338 80.2746 386.821 87.8088C379.303 95.343 369.351 99.5167 358.804 99.5167H58.1423Z" fill="#6C6C6C"/>
<path d="M58.1421 99.1916C47.7036 99.1916 37.806 95.0722 30.3421 87.5921C22.8783 80.1121 18.7678 70.2472 18.7678 59.7318V58.2683C18.7678 47.7529 22.8783 37.8879 30.3421 30.4079C37.806 22.9279 47.6495 18.8085 58.1421 18.8085H358.804C369.243 18.8085 379.14 22.9279 386.604 30.4079C394.068 37.8879 398.178 47.7529 398.178 58.2683V59.7318C398.178 70.193 394.068 80.1121 386.604 87.5921C379.14 95.0722 369.243 99.1916 358.804 99.1916H58.1421Z" fill="#626262"/>
<path d="M58.1423 98.8664C47.7579 98.8664 37.9684 94.8011 30.5587 87.3753C23.149 79.9495 19.0925 70.1388 19.0925 59.7318V58.2683C19.0925 47.8613 23.149 38.0506 30.5587 30.6247C37.9684 23.1989 47.7579 19.1337 58.1423 19.1337H358.804C369.189 19.1337 378.978 23.1989 386.334 30.6247C393.743 38.0506 397.8 47.8613 397.8 58.2683V59.7318C397.8 70.1388 393.743 79.9495 386.334 87.3753C378.924 94.8011 369.135 98.8664 358.804 98.8664H58.1423Z" fill="#585858"/>
<path d="M58.1418 98.5411C47.8655 98.5411 38.1301 94.4759 30.8286 87.1585C23.4729 79.7869 19.4706 70.0845 19.4706 59.7859V58.3225C19.4706 48.0239 23.527 38.2673 30.8286 30.9499C38.1842 23.5783 47.8655 19.5673 58.1418 19.5673H358.804C369.08 19.5673 378.815 23.6325 386.117 30.9499C393.473 38.3215 397.475 48.0239 397.475 58.3225V59.7859C397.475 70.0845 393.418 79.8411 386.117 87.1585C378.761 94.5301 369.08 98.5411 358.804 98.5411H58.1418Z" fill="#4E4E4E"/>
<path d="M58.1423 98.1617C47.9201 98.1617 38.347 94.1506 31.0454 86.8874C23.7979 79.6242 19.7956 69.9761 19.7956 59.7317V58.2682C19.7956 48.0239 23.7979 38.4299 31.0454 31.1125C38.347 23.8493 47.9201 19.8383 58.1423 19.8383H358.804C368.972 19.8383 378.599 23.8493 385.901 31.1125C393.203 38.3757 397.151 48.0239 397.151 58.2682V59.7317C397.151 69.9761 393.148 79.57 385.901 86.8874C378.654 94.1506 369.026 98.1617 358.804 98.1617H58.1423Z" fill="#454545"/>
<path d="M58.1421 97.8365C48.0281 97.8365 38.509 93.8796 31.3157 86.6164C24.1223 79.3532 20.1199 69.8135 20.1199 59.7317V58.2682C20.1199 48.1323 24.0682 38.5925 31.3157 31.3835C38.5631 24.1745 48.0822 20.1635 58.1421 20.1635H358.804C368.918 20.1635 378.437 24.1203 385.63 31.3835C392.824 38.5925 396.826 48.1865 396.826 58.2682V59.7317C396.826 69.8677 392.878 79.4074 385.63 86.6164C378.437 93.8254 368.864 97.8365 358.804 97.8365H58.1421Z" fill="#3B3B3B"/>
<path d="M58.1423 97.5113C48.1365 97.5113 38.6715 93.5544 31.5322 86.3996C24.3929 79.2448 20.4446 69.7593 20.4446 59.7317V58.2683C20.4446 48.2407 24.3929 38.7552 31.5322 31.6004C38.6715 24.4456 48.1365 20.4887 58.1423 20.4887H358.804C368.81 20.4887 378.275 24.4456 385.414 31.6004C392.554 38.7552 396.502 48.2407 396.502 58.2683V59.7317C396.502 69.7593 392.554 79.2448 385.414 86.3996C378.275 93.5544 368.81 97.5113 358.804 97.5113H58.1423Z" fill="#313131"/>
<path d="M58.1421 97.186C48.1904 97.186 38.8336 93.2834 31.7484 86.1828C24.6631 79.0822 20.769 69.7051 20.769 59.7317V58.2682C20.769 48.2949 24.6631 38.9177 31.7484 31.8171C38.8336 24.7166 48.1904 20.8139 58.1421 20.8139H358.804C368.756 20.8139 378.113 24.7166 385.198 31.8171C392.283 38.9177 396.177 48.2949 396.177 58.2682V59.7317C396.177 69.7051 392.283 79.0822 385.198 86.1828C378.113 93.2834 368.756 97.186 358.804 97.186H58.1421Z" fill="#272727"/>
<path d="M58.142 96.8608C48.2984 96.8608 38.9957 93.0124 31.9646 85.966C24.9335 78.9196 21.0934 69.6509 21.0934 59.7859V58.3224C21.0934 48.4575 24.9335 39.1346 31.9646 32.1424C38.9957 25.096 48.2984 21.2476 58.142 21.2476H358.804C368.647 21.2476 377.95 25.096 384.927 32.1424C391.958 39.1888 395.798 48.5117 395.798 58.3224V59.7859C395.798 69.6509 391.958 78.9738 384.927 85.966C377.896 93.0124 368.593 96.8608 358.804 96.8608H58.142Z" fill="#1D1D1D"/>
<path d="M58.1421 96.5356C48.4067 96.5356 39.2121 92.6872 32.2351 85.7492C25.258 78.7571 21.472 69.5425 21.472 59.786V58.3225C21.472 48.566 25.3121 39.3514 32.2351 32.3593C39.2121 25.3671 48.4067 21.5186 58.1421 21.5186H358.804C368.539 21.5186 377.734 25.3671 384.711 32.3593C391.688 39.3514 395.528 48.566 395.528 58.3225V59.786C395.528 69.5425 391.688 78.7571 384.711 85.7492C377.734 92.7414 368.539 96.5356 358.804 96.5356H58.1421Z" fill="#141414"/>
<path d="M58.142 96.1562C48.4607 96.1562 39.3743 92.3619 32.4514 85.4239C25.5284 78.5402 21.7424 69.3798 21.7424 59.6775V58.214C21.7424 48.5117 25.5284 39.4056 32.4514 32.4676C39.3203 25.5838 48.4607 21.7354 58.142 21.7354H358.804C368.485 21.7354 377.572 25.5296 384.495 32.4676C391.418 39.4056 395.204 48.5117 395.204 58.214V59.6775C395.204 69.3798 391.418 78.486 384.495 85.4239C377.626 92.3077 368.485 96.1562 358.804 96.1562H58.142Z" fill="#0A0A0A"/>
<path d="M58.1421 95.831C48.569 95.831 39.5367 92.0368 32.7219 85.2072C25.9071 78.3776 22.1211 69.3257 22.1211 59.7318V58.2683C22.1211 48.6744 25.9071 39.6224 32.7219 32.7929C39.5367 25.9633 48.569 22.1691 58.1421 22.1691H358.804C368.377 22.1691 377.409 25.9633 384.224 32.7929C391.039 39.6224 394.825 48.6744 394.825 58.2683V59.7318C394.825 69.3257 391.039 78.3776 384.224 85.2072C377.409 92.0368 368.377 95.831 358.804 95.831H58.1421Z" fill="black"/>
</mask>
<g mask="url(#mask0)">
<path opacity="0.5" d="M358.858 0H58.142C50.2996 0 42.7276 1.57189 35.5342 4.60726C28.6113 7.53422 22.3914 11.7079 17.091 17.074C11.7907 22.4401 7.5179 28.6734 4.59728 35.6114C1.56848 42.8204 0 50.4088 0 58.2683V59.7317C0 67.5912 1.56848 75.1796 4.59728 82.3886C7.5179 89.3266 11.7366 95.5599 17.091 100.872C22.4455 106.238 28.6654 110.412 35.5342 113.393C42.7276 116.428 50.2996 118 58.142 118H358.804C366.646 118 374.218 116.428 381.412 113.393C388.335 110.466 394.554 106.238 399.909 100.872C405.263 95.5057 409.428 89.2724 412.403 82.3886C415.432 75.1796 417 67.5912 417 59.7317V58.2683C417 50.4088 415.432 42.8204 412.403 35.6114C409.482 28.6734 405.263 22.4401 399.909 17.1282C394.609 11.7079 388.389 7.53422 381.466 4.60726C374.272 1.51769 366.646 0 358.858 0Z" fill="url(#paint1_linear)"/>
<path d="M360.156 16.3695C371.298 16.3695 381.736 20.7599 389.687 28.6736C397.583 36.5872 401.964 47.1026 401.964 58.2684V59.7861C401.964 70.9519 397.583 81.4131 389.687 89.381C381.79 97.2946 371.298 101.685 360.156 101.685H56.844C45.7023 101.685 35.2638 97.2946 27.3132 89.381C19.4167 81.4673 15.0358 70.9519 15.0358 59.7861V58.2684C15.0358 47.1026 19.4167 36.6414 27.3132 28.6736C35.2097 20.7599 45.7023 16.3695 56.844 16.3695H360.156ZM358.858 11.3286H58.142C45.7023 11.3286 33.9117 16.2069 25.0416 25.0962C16.1716 33.9855 11.3039 45.7475 11.3039 58.2684V59.7319C11.3039 72.1986 16.1716 84.0149 25.0416 92.9042C33.9117 101.793 45.6483 106.672 58.142 106.672H358.804C371.244 106.672 383.034 101.793 391.904 92.9042C400.774 84.0149 405.642 72.2528 405.642 59.7319V58.2684C405.642 45.8017 400.774 33.9855 391.904 25.0962C383.034 16.2069 371.298 11.3286 358.858 11.3286Z" fill="url(#paint2_linear)"/>
</g>
<defs>
<linearGradient id="paint0_linear" x1="208.496" y1="130.578" x2="208.496" y2="-16.3639" gradientUnits="userSpaceOnUse">
<stop stop-color="#EB781E"/>
<stop offset="1" stop-color="#001C78"/>
</linearGradient>
<linearGradient id="paint1_linear" x1="-0.00270428" y1="58.9984" x2="416.995" y2="58.9984" gradientUnits="userSpaceOnUse">
<stop stop-color="#FF964B"/>
<stop offset="1" stop-color="#FFE14B"/>
</linearGradient>
<linearGradient id="paint2_linear" x1="11.3055" y1="58.9974" x2="405.692" y2="58.9974" gradientUnits="userSpaceOnUse">
<stop stop-color="#FF964B"/>
<stop offset="1" stop-color="#FFE14B"/>
</linearGradient>
</defs>
</svg>
