<svg width="417" height="118" viewBox="0 0 417 118" fill="none" xmlns="http://www.w3.org/2000/svg">
<path opacity="0.35" d="M358.858 0H58.142C50.2996 0 42.7276 1.57189 35.5342 4.60726C28.6113 7.58842 22.3914 11.7621 17.0911 17.1282C11.7907 22.4943 7.5179 28.6734 4.59728 35.6114C1.56848 42.8204 0 50.4088 0 58.2683V59.7317C0 67.5912 1.56848 75.1796 4.59728 82.3886C7.5179 89.3266 11.7366 95.5599 17.0911 100.872C22.4455 106.238 28.6654 110.412 35.5883 113.393C42.7817 116.428 50.3537 118 58.1961 118H358.858C366.7 118 374.272 116.428 381.466 113.393C388.389 110.466 394.609 106.238 399.909 100.872C405.263 95.5057 409.428 89.2724 412.403 82.3886C415.432 75.1796 417 67.5912 417 59.7317V58.2683C417 50.4088 415.432 42.8204 412.403 35.6114C409.482 28.6734 405.263 22.4401 399.909 17.1282C394.554 11.7621 388.335 7.58842 381.466 4.60726C374.272 1.57189 366.646 0 358.858 0Z" fill="url(#paint0_linear)"/>
<mask id="mask0" mask-type="alpha" maskUnits="userSpaceOnUse" x="4" y="4" width="409" height="110">
<path d="M58.1421 113.23C43.9175 113.23 30.5584 107.647 20.4444 97.5113C10.3304 87.3753 4.75956 73.9871 4.75956 59.7318V58.2683C4.75956 44.0671 10.3304 30.6247 20.4444 20.4888C30.5584 10.3528 43.9175 4.76988 58.1421 4.76988H358.804C372.974 4.76988 386.388 10.3528 396.502 20.4888C406.616 30.6247 412.186 44.0129 412.186 58.2683V59.7318C412.186 73.9871 406.616 87.3753 396.502 97.5113C386.388 107.647 373.029 113.23 358.804 113.23H58.1421Z" fill="black"/>
<path d="M58.1429 112.905C44.0265 112.905 30.7215 107.376 20.7156 97.2944C10.6557 87.2127 5.13898 73.9329 5.13898 59.786V58.3225C5.13898 44.1755 10.6557 30.8415 20.7156 20.814C30.7756 10.7322 44.0265 5.20351 58.1429 5.20351H358.805C372.921 5.20351 386.226 10.7322 396.232 20.814C406.292 30.8957 411.809 44.1755 411.809 58.3225V59.786C411.809 73.9329 406.292 87.2669 396.232 97.2944C386.172 107.376 372.921 112.905 358.805 112.905H58.1429Z" fill="#0A0A0A"/>
<path d="M58.142 112.58C44.1339 112.58 30.8829 107.051 20.9311 97.0777C10.9794 87.0501 5.46265 73.8246 5.46265 59.786V58.3225C5.46265 44.2839 10.9794 31.0042 20.9311 21.0308C30.8829 11.0574 44.1339 5.52873 58.142 5.52873H358.804C372.812 5.52873 386.009 11.0574 396.015 21.0308C405.967 31.0042 411.483 44.2839 411.483 58.3225V59.786C411.483 73.8246 405.967 87.1043 396.015 97.0777C386.063 107.051 372.812 112.58 358.804 112.58H58.142Z" fill="#141414"/>
<path d="M58.1421 112.254C44.188 112.254 31.0993 106.78 21.1475 96.8608C11.2498 86.9417 5.7872 73.7703 5.7872 59.7859V58.3225C5.7872 44.3381 11.2498 31.2209 21.1475 21.2476C31.0452 11.3284 44.188 5.85393 58.1421 5.85393H358.804C372.758 5.85393 385.847 11.3284 395.799 21.2476C405.696 31.1667 411.159 44.3381 411.159 58.3225V59.7859C411.159 73.7703 405.696 86.8875 395.799 96.8608C385.901 106.78 372.758 112.254 358.804 112.254H58.1421Z" fill="#1D1D1D"/>
<path d="M58.1421 111.875C44.2961 111.875 31.2615 106.455 21.4179 96.5898C11.5744 86.7249 6.16579 73.662 6.16579 59.786V58.3225C6.16579 44.4465 11.5744 31.3836 21.4179 21.5187C31.2615 11.6537 44.2961 6.2334 58.1421 6.2334H358.804C372.65 6.2334 385.684 11.6537 395.528 21.5187C405.372 31.3836 410.78 44.4465 410.78 58.3225V59.786C410.78 73.662 405.372 86.7249 395.528 96.5898C385.684 106.455 372.65 111.875 358.804 111.875H58.1421Z" fill="#272727"/>
<path d="M58.142 111.55C44.4043 111.55 31.4237 106.13 21.6343 96.3188C11.8448 86.5081 6.4362 73.4994 6.4362 59.7318V58.3225C6.4362 44.555 11.8448 31.5462 21.6343 21.7355C31.4237 11.9247 44.4043 6.50443 58.142 6.50443H358.804C372.542 6.50443 385.522 11.9247 395.312 21.7355C405.101 31.5462 410.51 44.555 410.51 58.3225V59.786C410.51 73.5536 405.101 86.5623 395.312 96.3731C385.522 106.184 372.542 111.604 358.804 111.604H58.142V111.55Z" fill="#313131"/>
<path d="M58.1421 111.225C44.4584 111.225 31.586 105.859 21.8506 96.102C12.1152 86.3455 6.76074 73.4452 6.76074 59.7318V58.2683C6.76074 44.5549 12.1152 31.6546 21.8506 21.9523C31.586 12.1957 44.4584 6.82964 58.1421 6.82964H358.804C372.488 6.82964 385.36 12.1957 395.095 21.9523C404.831 31.7088 410.185 44.6091 410.185 58.2683V59.7318C410.185 73.4452 404.831 86.3455 395.095 96.102C385.36 105.859 372.488 111.225 358.804 111.225H58.1421Z" fill="#3B3B3B"/>
<path d="M58.1421 110.899C44.5666 110.899 31.7483 105.588 22.1211 95.8852C12.4397 86.1828 7.13934 73.3909 7.13934 59.786V58.3225C7.13934 44.7175 12.4397 31.8714 22.1211 22.2233C31.8024 12.5209 44.5666 7.20901 58.1421 7.20901H358.804C372.379 7.20901 385.198 12.5209 394.825 22.2233C404.506 31.9256 409.807 44.7175 409.807 58.3225V59.786C409.807 73.3909 404.506 86.237 394.825 95.8852C385.144 105.588 372.379 110.899 358.804 110.899H58.1421Z" fill="#454545"/>
<path d="M58.1421 110.574C44.6747 110.574 31.9646 105.262 22.3374 95.6684C12.7642 86.0744 7.46384 73.3367 7.46384 59.786V58.3225C7.46384 44.8259 12.7642 32.0882 22.3374 22.4401C31.9646 12.7919 44.6747 7.48004 58.1421 7.48004H358.804C372.271 7.48004 384.981 12.7919 394.609 22.3859C404.182 31.9798 409.482 44.7175 409.482 58.2683V59.7318C409.482 73.2283 404.182 85.966 394.609 95.6142C385.035 105.208 372.325 110.52 358.804 110.52H58.1421V110.574Z" fill="#4E4E4E"/>
<path d="M58.142 110.249C44.7288 110.249 32.1269 104.991 22.5537 95.4516C13.0346 85.9119 7.78835 73.2284 7.78835 59.786V58.3225C7.78835 44.8802 13.0346 32.2509 22.5537 22.6569C32.0728 13.063 44.7288 7.85951 58.142 7.85951H358.804C372.217 7.85951 384.819 13.1172 394.338 22.6569C403.857 32.1967 409.104 44.8802 409.104 58.3225V59.786C409.104 73.2284 403.857 85.8577 394.338 95.4516C384.819 104.991 372.163 110.249 358.804 110.249H58.142Z" fill="#585858"/>
<path d="M58.1421 109.87C44.837 109.87 32.2892 104.666 22.8242 95.1263C13.3592 85.6408 8.11288 73.0657 8.11288 59.7317V58.2683C8.11288 44.9343 13.3051 32.3592 22.8242 22.8737C32.2892 13.3881 44.837 8.13045 58.1421 8.13045H358.804C372.109 8.13045 384.657 13.3339 394.122 22.8737C403.587 32.3592 408.833 44.9343 408.833 58.2683V59.7317C408.833 73.0657 403.641 85.6408 394.122 95.1263C384.657 104.612 372.109 109.87 358.804 109.87H58.1421Z" fill="#626262"/>
<path d="M58.1421 109.544C44.8911 109.544 32.4514 104.341 23.0405 94.9095C13.6296 85.4782 8.43738 73.0115 8.43738 59.7317V58.2683C8.43738 45.0427 13.6296 32.5218 23.0405 23.0905C32.4514 13.6592 44.8911 8.45567 58.1421 8.45567H358.804C372.001 8.45567 384.495 13.6592 393.906 23.0905C403.316 32.5218 408.509 44.9885 408.509 58.2683V59.7317C408.509 72.9573 403.316 85.4782 393.906 94.9095C384.495 104.341 372.055 109.544 358.804 109.544H58.1421Z" fill="#6C6C6C"/>
<path d="M58.142 109.219C44.9992 109.219 32.6136 104.07 23.2568 94.6927C13.9 85.3156 8.76189 72.9031 8.76189 59.786V58.3225C8.76189 45.1511 13.9 32.7387 23.2568 23.3615C32.6136 13.9844 44.9992 8.83511 58.142 8.83511H358.804C371.947 8.83511 384.332 13.9844 393.635 23.3615C402.992 32.7387 408.13 45.1511 408.13 58.3225V59.786C408.13 72.9573 402.992 85.3698 393.635 94.6927C384.278 104.07 371.893 109.219 358.804 109.219H58.142Z" fill="#767676"/>
<path d="M58.142 108.894C45.1074 108.894 32.83 103.745 23.5273 94.476C14.2245 85.153 9.14049 72.8489 9.14049 59.786V58.3225C9.14049 45.2596 14.2786 32.9555 23.5273 23.6326C32.83 14.3097 45.1074 9.21458 58.142 9.21458H358.804C371.839 9.21458 384.116 14.3639 393.419 23.6326C402.721 32.9555 407.805 45.2596 407.805 58.3225V59.786C407.805 72.8489 402.667 85.153 393.419 94.476C384.116 103.799 371.839 108.894 358.804 108.894H58.142Z" fill="#7F7F7F"/>
<path d="M58.1421 108.569C45.1615 108.569 32.9923 103.474 23.7436 94.2591C14.5491 84.9904 9.46503 72.7947 9.46503 59.786V58.3225C9.46503 45.368 14.5491 33.1181 23.7436 23.8494C32.9923 14.5807 45.1615 9.53978 58.1421 9.53978H358.804C371.73 9.53978 383.954 14.6349 393.202 23.8494C402.397 33.0639 407.481 45.3138 407.481 58.3225V59.786C407.481 72.7405 402.397 84.9904 393.202 94.2591C383.954 103.528 371.785 108.569 358.804 108.569H58.1421Z" fill="#898989"/>
<path d="M58.1421 108.243C45.2697 108.243 33.1545 103.203 24.014 93.9881C14.8736 84.8278 9.84361 72.6321 9.84361 59.786V58.3225C9.84361 45.4222 14.8736 33.2807 24.014 24.1204C33.1545 14.9601 45.3238 9.86499 58.1421 9.86499H358.804C371.676 9.86499 383.791 14.9059 392.932 24.1204C402.072 33.2807 407.156 45.4764 407.156 58.3225V59.786C407.156 72.6863 402.127 84.8278 392.932 93.9881C383.791 103.148 371.622 108.243 358.804 108.243H58.1421Z" fill="#939393"/>
<path d="M58.142 107.918C45.3778 107.918 33.3168 102.877 24.2304 93.7713C15.144 84.6652 10.114 72.5779 10.114 59.786V58.3225C10.114 45.5306 15.144 33.4433 24.2304 24.3372C33.3168 15.2311 45.3778 10.1902 58.142 10.1902H358.804C371.568 10.1902 383.629 15.2311 392.716 24.3372C401.802 33.4433 406.832 45.5306 406.832 58.3225V59.786C406.832 72.5779 401.802 84.6652 392.716 93.7713C383.629 102.877 371.568 107.918 358.804 107.918H58.142Z" fill="#9D9D9D"/>
<path d="M58.1421 107.539C45.432 107.539 33.479 102.552 24.4467 93.5002C15.4144 84.4483 10.4386 72.4695 10.4386 59.7318V58.3225C10.4386 45.5848 15.4144 33.6059 24.4467 24.554C33.5331 15.5021 45.486 10.5154 58.1421 10.5154H358.804C371.514 10.5154 383.467 15.5021 392.499 24.554C401.532 33.6059 406.507 45.5848 406.507 58.3225V59.786C406.507 72.5237 401.532 84.5025 392.499 93.5544C383.467 102.606 371.514 107.593 358.804 107.593H58.1421V107.539Z" fill="#A7A7A7"/>
<path d="M58.1421 107.214C45.5401 107.214 33.6413 102.281 24.7172 93.2835C15.739 84.2858 10.8172 72.4153 10.8172 59.786V58.3225C10.8172 45.6932 15.739 33.8227 24.7172 24.825C33.6954 15.8273 45.5401 10.8949 58.1421 10.8949H358.804C371.406 10.8949 383.251 15.8273 392.229 24.825C401.207 33.8227 406.129 45.6932 406.129 58.3225V59.786C406.129 72.4153 401.207 84.2858 392.229 93.2835C383.251 102.281 371.406 107.214 358.804 107.214H58.1421Z" fill="#B1B1B1"/>
<path d="M58.1421 106.888C45.6483 106.888 33.8576 101.956 24.9335 93.0666C16.0094 84.1231 11.1417 72.3069 11.1417 59.7859V58.3225C11.1417 45.8016 16.0635 33.9853 24.9335 25.0418C33.8576 16.0983 45.6483 11.1658 58.1421 11.1658H358.804C371.298 11.1658 383.088 16.0983 392.013 24.9876C400.937 33.9311 405.804 45.7474 405.804 58.2683V59.7317C405.804 72.2526 400.883 84.0689 392.013 93.0124C383.088 101.956 371.298 106.834 358.804 106.834H58.1421V106.888Z" fill="#BABABA"/>
<path d="M58.1421 106.563C45.7024 106.563 34.0199 101.685 25.1499 92.7956C16.2798 83.9063 11.4121 72.1985 11.4121 59.7318V58.2683C11.4121 45.8016 16.2798 34.0937 25.1499 25.2044C33.9658 16.3693 45.7024 11.4369 58.1421 11.4369H358.804C371.244 11.4369 382.926 16.3151 391.796 25.2044C400.666 34.0937 405.534 45.8016 405.534 58.2683V59.7318C405.534 72.1985 400.666 83.9063 391.796 92.7956C382.98 101.685 371.244 106.563 358.804 106.563H58.1421Z" fill="#C4C4C4"/>
<path d="M58.1421 106.238C45.8106 106.238 34.1822 101.414 25.4203 92.5788C16.6584 83.7979 11.7907 72.1443 11.7907 59.786V58.3225C11.7907 45.9642 16.6043 34.3105 25.4203 25.5296C34.1822 16.7488 45.8106 11.8705 58.1421 11.8705H358.804C371.135 11.8705 382.764 16.6946 391.526 25.5296C400.288 34.3105 405.155 45.9642 405.155 58.3225V59.786C405.155 72.1443 400.342 83.7979 391.526 92.5788C382.764 101.36 371.135 106.238 358.804 106.238H58.1421Z" fill="#CECECE"/>
<path d="M58.1421 105.913C45.9187 105.913 34.3444 101.089 25.6366 92.362C16.9288 83.6353 12.1152 72.0358 12.1152 59.7859V58.3225C12.1152 46.0726 16.9288 34.4731 25.6366 25.7464C34.3444 17.0197 45.9187 12.1957 58.1421 12.1957H358.804C371.027 12.1957 382.602 17.0197 391.309 25.7464C400.017 34.4731 404.831 46.0726 404.831 58.3225V59.7859C404.831 72.0358 400.017 83.6353 391.309 92.362C382.602 101.089 371.027 105.913 358.804 105.913H58.1421Z" fill="#D8D8D8"/>
<path d="M58.1421 105.533C45.9728 105.533 34.5066 100.763 25.8529 92.091C17.1992 83.4185 12.4397 71.9274 12.4397 59.7317V58.2683C12.4397 46.0726 17.1992 34.5815 25.8529 25.9091C34.5066 17.2366 45.9728 12.4667 58.1421 12.4667H358.804C370.973 12.4667 382.439 17.2366 391.093 25.9091C399.747 34.5815 404.506 46.0726 404.506 58.2683V59.7317C404.506 71.9274 399.747 83.4185 391.093 92.091C382.439 100.763 370.973 105.533 358.804 105.533H58.1421Z" fill="#E2E2E2"/>
<path d="M58.142 105.208C46.0809 105.208 34.723 100.492 26.1234 91.8742C17.5237 83.2559 12.8183 71.8733 12.8183 59.786V58.3225C12.8183 46.2352 17.5237 34.8526 26.1234 26.2343C34.723 17.616 46.0809 12.9004 58.142 12.9004H358.804C370.865 12.9004 382.223 17.616 390.823 26.2343C399.422 34.8526 404.128 46.2352 404.128 58.3225V59.786C404.128 71.8733 399.422 83.2559 390.823 91.8742C382.223 100.492 370.865 105.208 358.804 105.208H58.142Z" fill="#EBEBEB"/>
<path d="M58.1421 104.883C46.1892 104.883 34.8853 100.167 26.3397 91.6573C17.7942 83.0933 13.1429 71.7648 13.1429 59.786V58.3225C13.1429 46.3436 17.8483 35.0152 26.3397 26.4511C34.8853 17.887 46.1351 13.2256 58.1421 13.2256H358.804C370.757 13.2256 382.061 17.9412 390.606 26.4511C399.152 35.0152 403.857 46.2894 403.857 58.3225V59.786C403.857 71.7648 399.152 83.0933 390.606 91.6573C382.061 100.221 370.811 104.883 358.804 104.883H58.1421Z" fill="#F5F5F5"/>
<path d="M58.142 104.558C46.2432 104.558 35.0475 99.8962 26.5561 91.3863C18.0646 82.8765 13.4133 71.6564 13.4133 59.786V58.3225C13.4133 46.3978 18.0646 35.1778 26.5561 26.6679C35.0475 18.2122 46.2432 13.4966 58.142 13.4966H358.804C370.703 13.4966 381.898 18.158 390.39 26.6679C398.881 35.1236 403.533 46.3978 403.533 58.2683V59.7318C403.533 71.6564 398.881 82.8765 390.39 91.3321C381.898 99.842 370.703 104.503 358.804 104.503H58.142V104.558Z" fill="white"/>
<path d="M58.142 104.232C46.3514 104.232 35.2097 99.5709 26.8265 91.1695C18.4432 82.768 13.7918 71.6022 13.7918 59.7859V58.3224C13.7918 46.5062 18.4432 35.3403 26.8265 26.9389C35.2097 18.5374 46.3514 13.8759 58.142 13.8759H358.804C370.595 13.8759 381.736 18.5374 390.119 26.9389C398.503 35.3403 403.154 46.5062 403.154 58.3224V59.7859C403.154 71.6022 398.557 82.768 390.119 91.1695C381.736 99.5709 370.595 104.232 358.804 104.232H58.142Z" fill="#F5F5F5"/>
<path d="M58.1421 103.907C46.4055 103.907 35.372 99.3 27.0429 90.9527C18.7137 82.5513 14.1164 71.4938 14.1164 59.786V58.3225C14.1164 46.6146 18.7137 35.503 27.0429 27.1558C35.372 18.8085 46.4055 14.2012 58.1421 14.2012H358.804C370.486 14.2012 381.574 18.8085 389.903 27.1558C398.232 35.503 402.83 46.5604 402.83 58.3225V59.786C402.83 71.4938 398.232 82.6055 389.903 90.9527C381.574 99.3 370.541 103.907 358.804 103.907H58.1421Z" fill="#EBEBEB"/>
<path d="M58.1421 103.528C46.5137 103.528 35.5884 98.9748 27.2592 90.6817C18.9841 82.3886 14.4409 71.3854 14.4409 59.786V58.3225C14.4409 46.6688 18.9841 35.7198 27.2592 27.4267C35.5343 19.1337 46.5137 14.5806 58.1421 14.5806H358.804C370.432 14.5806 381.358 19.1337 389.633 27.4267C397.908 35.7198 402.451 46.723 402.451 58.3225V59.786C402.451 71.4396 397.908 82.3886 389.633 90.6817C381.358 98.9748 370.378 103.528 358.804 103.528H58.1421Z" fill="#E2E2E2"/>
<path d="M58.1421 103.203C46.6218 103.203 35.7506 98.6495 27.5296 90.4107C19.3086 82.1718 14.8195 71.277 14.8195 59.7318V58.2683C14.8195 46.723 19.3627 35.8282 27.5296 27.5894C35.7506 19.4047 46.6218 14.8517 58.1421 14.8517H358.804C370.324 14.8517 381.195 19.4047 389.416 27.5894C397.637 35.8282 402.181 46.723 402.181 58.2683V59.7318C402.181 71.277 397.637 82.1718 389.416 90.4107C381.195 98.6495 370.324 103.203 358.804 103.203H58.1421Z" fill="#D8D8D8"/>
<path d="M58.1421 102.877C46.6759 102.877 35.9129 98.3785 27.746 90.1938C19.579 82.0092 15.0899 71.2228 15.0899 59.7317V58.3225C15.0899 46.8314 19.579 36.045 27.746 27.8604C35.9129 19.6757 46.6759 15.1768 58.1421 15.1768H358.804C370.27 15.1768 381.033 19.6757 389.2 27.8604C397.367 36.045 401.856 46.8314 401.856 58.3225V59.7859C401.856 71.277 397.367 82.0634 389.2 90.248C381.033 98.4327 370.27 102.932 358.804 102.932H58.1421V102.877Z" fill="#CECECE"/>
<path d="M58.1421 102.552C46.7841 102.552 36.0751 98.1075 28.0164 89.9771C19.9576 81.8466 15.4685 71.1144 15.4685 59.786V58.3225C15.4685 46.9399 19.9035 36.2077 28.0164 28.1314C36.1292 20.001 46.8382 15.5563 58.1421 15.5563H358.804C370.162 15.5563 380.871 20.001 388.93 28.1314C397.042 36.2619 401.477 46.9941 401.477 58.3225V59.786C401.477 71.1686 397.042 81.9008 388.93 89.9771C380.817 98.1075 370.108 102.552 358.804 102.552H58.1421Z" fill="#C4C4C4"/>
<path d="M58.1421 102.227C46.8923 102.227 36.2374 97.7823 28.2327 89.7603C20.2281 81.7382 15.793 71.0602 15.793 59.786V58.3225C15.793 47.0483 20.2281 36.3703 28.2327 28.3482C36.2374 20.3262 46.8923 15.8815 58.1421 15.8815H358.804C370.054 15.8815 380.709 20.3262 388.713 28.3482C396.718 36.3703 401.153 47.0483 401.153 58.3225V59.786C401.153 71.0602 396.718 81.7382 388.713 89.7603C380.709 97.7823 370.054 102.227 358.804 102.227H58.1421Z" fill="#BABABA"/>
<path d="M58.142 101.902C46.9463 101.902 36.3996 97.5113 28.449 89.5434C20.4985 81.5756 16.1175 71.006 16.1175 59.786V58.3225C16.1175 47.1025 20.4985 36.5871 28.449 28.565C36.3996 20.5972 46.9463 16.2067 58.142 16.2067H358.804C370 16.2067 380.492 20.5972 388.497 28.565C396.447 36.5329 400.828 47.1025 400.828 58.3225V59.786C400.828 71.006 396.447 81.5214 388.497 89.5434C380.546 97.5113 370 101.902 358.804 101.902H58.142Z" fill="#B1B1B1"/>
<path d="M58.142 101.576C47.0545 101.576 36.616 97.2402 28.7195 89.2724C20.823 81.3587 16.4961 70.8975 16.4961 59.7859V58.3224C16.4961 47.2108 20.823 36.7496 28.7195 28.836C36.616 20.9223 47.0545 16.5861 58.142 16.5861H358.804C369.891 16.5861 380.33 20.9223 388.226 28.836C396.123 36.7496 400.504 47.2108 400.504 58.3224V59.7859C400.504 70.8975 396.177 81.3587 388.226 89.2724C380.33 97.186 369.891 101.576 358.804 101.576H58.142Z" fill="#A7A7A7"/>
<path d="M58.1421 101.197C47.1627 101.197 36.7782 96.8608 28.9358 89.0014C21.0934 81.142 16.7666 70.735 16.7666 59.7318V58.2683C16.7666 47.2651 21.0934 36.8581 28.9358 28.9987C36.7782 21.1392 47.1627 16.803 58.1421 16.803H358.804C369.783 16.803 380.168 21.1392 388.01 28.9987C395.853 36.8581 400.179 47.2651 400.179 58.2683V59.7318C400.179 70.735 395.853 81.142 388.01 89.0014C380.168 96.8608 369.783 101.197 358.804 101.197H58.1421Z" fill="#9D9D9D"/>
<path d="M58.142 100.872C47.2167 100.872 36.9405 96.5898 29.1522 88.7846C21.3638 80.9793 17.0911 70.6808 17.0911 59.7318V58.2683C17.0911 47.3193 21.3638 37.0207 29.1522 29.2154C36.9405 21.4102 47.2167 17.1282 58.142 17.1282H358.804C369.729 17.1282 380.005 21.4102 387.794 29.2154C395.582 37.0207 399.855 47.3193 399.855 58.2683V59.7318C399.855 70.6808 395.582 80.9793 387.794 88.7846C380.005 96.5898 369.729 100.872 358.804 100.872H58.142Z" fill="#939393"/>
<path d="M58.142 100.547C47.3249 100.547 37.1027 96.3188 29.4226 88.5678C21.6883 80.8168 17.4697 70.6266 17.4697 59.786V58.3225C17.4697 47.4819 21.7424 37.2375 29.4226 29.5407C37.1568 21.7897 47.3249 17.5618 58.142 17.5618H358.804C369.621 17.5618 379.843 21.8439 387.523 29.5407C395.258 37.2917 399.476 47.4819 399.476 58.3225V59.786C399.476 70.6266 395.258 80.871 387.523 88.5678C379.789 96.3188 369.621 100.547 358.804 100.547H58.142Z" fill="#898989"/>
<path d="M58.1421 100.221C47.4331 100.221 37.265 95.9936 29.639 88.351C22.0129 80.7083 17.7942 70.5182 17.7942 59.786V58.3225C17.7942 47.5903 22.0129 37.4001 29.639 29.7575C37.265 22.1149 47.4331 17.887 58.1421 17.887H358.804C369.513 17.887 379.681 22.1149 387.307 29.7575C394.933 37.4001 399.152 47.5903 399.152 58.3225V59.786C399.152 70.5182 394.933 80.7083 387.307 88.351C379.681 95.9936 369.513 100.221 358.804 100.221H58.1421Z" fill="#808080"/>
<path d="M58.1421 99.8962C47.4872 99.8962 37.4814 95.7226 29.8553 88.08C22.2833 80.4915 18.1187 70.4098 18.1187 59.7318V58.2683C18.1187 47.5903 22.2833 37.5627 29.8553 29.9201C37.4273 22.3317 47.4872 18.1581 58.1421 18.1581H358.804C369.459 18.1581 379.465 22.3317 387.091 29.9201C394.663 37.5085 398.827 47.5903 398.827 58.2683V59.7318C398.827 70.4098 394.663 80.4373 387.091 88.08C379.519 95.6684 369.459 99.8962 358.804 99.8962H58.1421Z" fill="#767676"/>
<path d="M58.142 99.5709C47.5953 99.5709 37.6436 95.3973 30.1257 87.8631C22.6078 80.3289 18.4432 70.3555 18.4432 59.7859V58.3224C18.4432 47.7528 22.6078 37.7795 30.1257 30.2453C37.6436 22.711 47.5953 18.5374 58.142 18.5374H358.804C369.351 18.5374 379.302 22.711 386.82 30.2453C394.338 37.7795 398.503 47.7528 398.503 58.3224V59.7859C398.503 70.3555 394.338 80.3289 386.82 87.8631C379.302 95.3973 369.351 99.5709 358.804 99.5709H58.142Z" fill="#6C6C6C"/>
<path d="M58.142 99.2458C47.6494 99.2458 37.8058 95.1264 30.342 87.6463C22.8782 80.1663 18.7677 70.3014 18.7677 59.786V58.3225C18.7677 47.8613 22.8782 37.9422 30.342 30.4622C37.8058 22.9821 47.6494 18.8627 58.142 18.8627H358.804C369.242 18.8627 379.14 22.9821 386.604 30.4622C394.068 37.9422 398.178 47.8613 398.178 58.3225V59.786C398.178 70.2472 394.068 80.1663 386.604 87.6463C379.14 95.1264 369.297 99.2458 358.804 99.2458H58.142Z" fill="#626262"/>
<path d="M58.1421 98.8664C47.7576 98.8664 37.9681 94.8012 30.5584 87.3753C23.1487 79.9495 19.0923 70.1388 19.0923 59.7318V58.3225C19.0923 47.9155 23.1487 38.1048 30.5584 30.679C37.9681 23.2532 47.7576 19.1879 58.1421 19.1879H358.804C369.188 19.1879 378.978 23.2532 386.388 30.679C393.797 38.1048 397.854 47.9155 397.854 58.3225V59.786C397.854 70.193 393.797 80.0037 386.388 87.4296C378.978 94.8554 369.188 98.9206 358.804 98.9206H58.1421V98.8664Z" fill="#585858"/>
<path d="M58.1421 98.5411C47.8658 98.5411 38.1304 94.4759 30.8288 87.1585C23.4732 79.7869 19.4709 70.0845 19.4709 59.7859V58.3225C19.4709 48.0239 23.5273 38.2673 30.8288 30.9499C38.1845 23.5783 47.8658 19.5673 58.1421 19.5673H358.804C369.08 19.5673 378.816 23.6325 386.117 30.9499C393.473 38.3215 397.475 48.0239 397.475 58.3225V59.7859C397.475 70.0845 393.419 79.8411 386.117 87.1585C378.762 94.5301 369.08 98.5411 358.804 98.5411H58.1421Z" fill="#4E4E4E"/>
<path d="M58.142 98.2159C47.9199 98.2159 38.3467 94.2049 31.0452 86.8875C23.7977 79.6243 19.7953 69.9761 19.7953 59.7318V58.2683C19.7953 48.0239 23.7977 38.43 31.0452 31.1125C38.2926 23.8493 47.9199 19.8383 58.142 19.8383H358.804C368.972 19.8383 378.599 23.8493 385.901 31.1125C393.148 38.3758 397.151 48.0239 397.151 58.2683V59.7318C397.151 69.9761 393.148 79.5701 385.901 86.8875C378.653 94.2049 369.026 98.2159 358.804 98.2159H58.142Z" fill="#454545"/>
<path d="M58.1421 97.8907C48.0281 97.8907 38.509 93.9339 31.2615 86.6707C24.0681 79.4617 20.0658 69.8678 20.0658 59.786V58.3225C20.0658 48.1865 24.014 38.6468 31.2615 31.4378C38.4549 24.2288 48.0281 20.2178 58.1421 20.2178H358.804C368.918 20.2178 378.437 24.1746 385.63 31.4378C392.824 38.6468 396.826 48.2407 396.826 58.3225V59.786C396.826 69.922 392.878 79.4617 385.63 86.6707C378.437 93.8797 368.864 97.8907 358.804 97.8907H58.1421Z" fill="#3B3B3B"/>
<path d="M58.1421 97.5655C48.1362 97.5655 38.6712 93.6087 31.5319 86.4539C24.3926 79.2991 20.4444 69.8136 20.4444 59.786V58.3225C20.4444 48.2949 24.3926 38.8094 31.5319 31.6546C38.6712 24.4998 48.1362 20.543 58.1421 20.543H358.804C368.81 20.543 378.275 24.4998 385.414 31.6546C392.553 38.8094 396.502 48.2949 396.502 58.3225V59.786C396.502 69.8136 392.553 79.2991 385.414 86.4539C378.275 93.6087 368.81 97.5655 358.804 97.5655H58.1421Z" fill="#313131"/>
<path d="M58.142 97.2403C48.1903 97.2403 38.8335 93.3376 31.7483 86.237C24.6631 79.1364 20.7689 69.7593 20.7689 59.786V58.3225C20.7689 48.3491 24.6631 38.972 31.7483 31.8714C38.8335 24.7708 48.1903 20.8682 58.142 20.8682H358.804C368.756 20.8682 378.112 24.7708 385.198 31.8714C392.283 38.972 396.177 48.3491 396.177 58.3225V59.786C396.177 69.7593 392.283 79.1364 385.198 86.237C378.112 93.3376 368.756 97.2403 358.804 97.2403H58.142Z" fill="#272727"/>
<path d="M58.142 96.8608C48.2985 96.8608 38.9957 93.0124 32.0187 85.966C24.9876 78.9196 21.1475 69.6509 21.1475 59.7859V58.3224C21.1475 48.4575 24.9876 39.1346 32.0187 32.1424C39.0498 25.096 48.3526 21.2476 58.142 21.2476H358.804C368.648 21.2476 377.95 25.096 384.927 32.1424C391.958 39.1888 395.798 48.4575 395.798 58.3224V59.7859C395.798 69.6509 391.958 78.9738 384.927 85.966C377.896 93.0124 368.648 96.8608 358.804 96.8608H58.142Z" fill="#1D1D1D"/>
<path d="M58.1421 96.5356C48.4067 96.5356 39.158 92.6872 32.2351 85.7492C25.258 78.757 21.4179 69.5425 21.4179 59.786V58.3225C21.4179 48.566 25.258 39.3514 32.2351 32.3592C39.2121 25.3671 48.4067 21.5728 58.1421 21.5728H358.804C368.539 21.5728 377.734 25.4213 384.711 32.3592C391.688 39.3514 395.474 48.566 395.474 58.3225V59.786C395.474 69.5425 391.634 78.757 384.711 85.7492C377.734 92.7414 368.539 96.5356 358.804 96.5356H58.1421Z" fill="#141414"/>
<path d="M58.142 96.2104C48.4607 96.2104 39.3743 92.4162 32.4514 85.4782C25.5825 78.5944 21.7424 69.4341 21.7424 59.7318V58.2683C21.7424 48.5659 25.5284 39.4598 32.4514 32.5218C39.3203 25.6381 48.4607 21.7896 58.142 21.7896H358.804C368.485 21.7896 377.572 25.5839 384.495 32.5218C391.364 39.4056 395.204 48.5659 395.204 58.2683V59.7318C395.204 69.4341 391.418 78.5402 384.495 85.4782C377.626 92.362 368.485 96.2104 358.804 96.2104H58.142Z" fill="#0A0A0A"/>
<path d="M58.142 95.8852C48.5689 95.8852 39.5366 92.091 32.7218 85.2614C25.907 78.4318 22.121 69.3799 22.121 59.786V58.3225C22.121 48.7286 25.907 39.6767 32.7218 32.8471C39.5366 26.0175 48.5689 22.2233 58.142 22.2233H358.804C368.377 22.2233 377.409 26.0175 384.224 32.8471C391.039 39.6767 394.825 48.7286 394.825 58.3225V59.786C394.825 69.3799 391.039 78.4318 384.224 85.2614C377.409 92.091 368.377 95.8852 358.804 95.8852H58.142Z" fill="black"/>
</mask>
<g mask="url(#mask0)">
<path opacity="0.5" d="M358.858 0H58.142C50.2996 0 42.7276 1.57189 35.5342 4.60726C28.6113 7.58842 22.3914 11.7621 17.0911 17.1282C11.7907 22.4943 7.5179 28.6734 4.59728 35.6114C1.56848 42.8204 0 50.4088 0 58.2683V59.7317C0 67.5912 1.56848 75.1796 4.59728 82.3886C7.5179 89.3266 11.7366 95.5599 17.0911 100.872C22.4455 106.238 28.6654 110.412 35.5883 113.393C42.7817 116.428 50.3537 118 58.1961 118H358.858C366.7 118 374.272 116.428 381.466 113.393C388.389 110.466 394.609 106.238 399.909 100.872C405.263 95.5057 409.428 89.2724 412.403 82.3886C415.432 75.1796 417 67.5912 417 59.7317V58.2683C417 50.4088 415.432 42.8204 412.403 35.6114C409.482 28.6734 405.263 22.4401 399.909 17.1282C394.554 11.7621 388.335 7.58842 381.466 4.60726C374.272 1.57189 366.646 0 358.858 0Z" fill="url(#paint1_linear)"/>
<path d="M360.156 16.3693C371.298 16.3693 381.736 20.7597 389.687 28.6734C397.583 36.587 401.964 47.1024 401.964 58.2682V59.7859C401.964 70.9517 397.583 81.4129 389.687 89.3808C381.79 97.2944 371.298 101.685 360.156 101.685H56.8439C45.7023 101.685 35.2638 97.2944 27.3132 89.3808C19.4167 81.4671 15.0358 70.9517 15.0358 59.7859V58.2682C15.0358 47.1024 19.4167 36.6412 27.3132 28.6734C35.2097 20.7597 45.7023 16.3693 56.8439 16.3693H360.156ZM358.858 11.3284H58.142C45.7023 11.3284 33.9116 16.2067 25.0416 25.096C16.1716 33.9853 11.3039 45.7473 11.3039 58.2682V59.7317C11.3039 72.1984 16.1716 84.0147 25.0416 92.904C33.9116 101.793 45.6482 106.672 58.142 106.672H358.804C371.244 106.672 383.034 101.793 391.904 92.904C400.774 84.0147 405.642 72.2526 405.642 59.7317V58.2682C405.642 45.8015 400.774 33.9853 391.904 25.096C383.034 16.2609 371.298 11.3284 358.858 11.3284Z" fill="url(#paint2_linear)"/>
</g>
<defs>
<linearGradient id="paint0_linear" x1="208.502" y1="130.614" x2="208.502" y2="-16.3281" gradientUnits="userSpaceOnUse">
<stop stop-color="#EB28AA"/>
<stop offset="1" stop-color="#001C78"/>
</linearGradient>
<linearGradient id="paint1_linear" x1="0.00162257" y1="59.0342" x2="417.002" y2="59.0342" gradientUnits="userSpaceOnUse">
<stop stop-color="#EB28AA"/>
<stop offset="1" stop-color="#FF644B"/>
</linearGradient>
<linearGradient id="paint2_linear" x1="11.3071" y1="59.033" x2="405.694" y2="59.033" gradientUnits="userSpaceOnUse">
<stop stop-color="#EB28AA"/>
<stop offset="1" stop-color="#FF644B"/>
</linearGradient>
</defs>
</svg>
